<svg xmlns="http://www.w3.org/2000/svg" width="40" height="41" fill="none" xmlns:v="https://vecta.io/nano"><g clip-path="url(#C)"><mask id="A" maskUnits="userSpaceOnUse" x="0" y="0" width="40" height="41"><path d="M40 .38H0v40h40v-40z" fill="#fff"/></mask><g mask="url(#A)"><path fill-rule="evenodd" d="M18.015 5h2.232l4.099 11.32H13.916L18.015 5zm-5.94 11.32L16.175 5h-5.012a1.66 1.66 0 0 0-1.453.876L4.064 16.19 4 16.32h8.076zm-7.877 1.778h8.17l4.438 15.787c-.059-.055-.114-.115-.166-.18L4.229 18.137l-.03-.039zm9.966 0h9.934l-4.564 16.235h-.806l-4.564-16.235zm11.729 0l-4.456 15.853c.074-.062.143-.13.207-.205l13.249-15.593.045-.055h-9.044zm9.273-1.778c-.025-.058-.053-.115-.084-.17L29.318 5.861A1.66 1.66 0 0 0 27.874 5h-5.785l4.099 11.32h8.979z" fill="url(#B)"/></g></g><defs><linearGradient id="B" x1="19.583" y1="5" x2="19.583" y2="34.333" gradientUnits="userSpaceOnUse"><stop stop-color="#490e06"/><stop offset=".515" stop-color="#873d13"/><stop offset="1" stop-color="#a88300"/></linearGradient><clipPath id="C"><path fill="#fff" transform="translate(0 .38)" d="M0 0h40v40H0z"/></clipPath></defs></svg>