<svg width="28" height="28" viewBox="0 0 28 28" fill="none" xmlns="http://www.w3.org/2000/svg">
<g clip-path="url(#clip0_45608_193848)">
<mask id="mask0_45608_193848" style="mask-type:luminance" maskUnits="userSpaceOnUse" x="0" y="0" width="28" height="28">
<path d="M28 0H0V28H28V0Z" fill="white"/>
</mask>
<g mask="url(#mask0_45608_193848)">
<path d="M14 28C21.732 28 28 21.732 28 14C28 6.26801 21.732 0 14 0C6.26801 0 0 6.26801 0 14C0 21.732 6.26801 28 14 28Z" fill="url(#paint0_linear_45608_193848)"/>
<path d="M14 26.6875C21.0071 26.6875 26.6875 21.0071 26.6875 14C26.6875 6.99289 21.0071 1.3125 14 1.3125C6.99289 1.3125 1.3125 6.99289 1.3125 14C1.3125 21.0071 6.99289 26.6875 14 26.6875Z" fill="url(#paint1_linear_45608_193848)"/>
<path fill-rule="evenodd" clip-rule="evenodd" d="M6.22857 8C6.10234 8 6 8.09638 6 8.21525V19.7848C6 19.9036 6.10234 20 6.22857 20H21.7714C21.8977 20 22 19.9036 22 19.7848V8.21525C22 8.09638 21.8977 8 21.7714 8H6.22857ZM12.8255 15.2739C12.8255 15.375 12.9125 15.457 13.0199 15.457H14.5427C14.6501 15.457 14.7371 15.375 14.7371 15.2739C14.7371 15.0705 14.7709 14.8976 14.8384 14.7552C14.9059 14.6102 15.0058 14.4818 15.1381 14.37C15.2704 14.2556 15.4338 14.1449 15.6282 14.0382C15.8928 13.8932 16.1237 13.733 16.3207 13.5576C16.5206 13.3796 16.6758 13.1749 16.7865 12.9435C16.8999 12.7096 16.9566 12.4388 16.9566 12.1311C16.9566 11.6531 16.8257 11.2552 16.5638 10.9373C16.3019 10.6169 15.9441 10.3779 15.4905 10.2203C15.0369 10.0601 14.5211 9.98 13.9433 9.98C13.4195 9.98 12.9389 10.0627 12.5015 10.2279C12.0641 10.3906 11.713 10.6475 11.4485 10.9983C11.2189 11.3005 11.0869 11.682 11.0524 12.1429C11.0435 12.2623 11.147 12.36 11.2741 12.36H12.8885C13.0147 12.36 13.1127 12.2618 13.1459 12.147C13.1641 12.0841 13.1909 12.0254 13.2265 11.9709C13.3021 11.859 13.4006 11.7713 13.5221 11.7078C13.6463 11.6442 13.7813 11.6124 13.9271 11.6124C14.0621 11.6124 14.185 11.6391 14.2957 11.6925C14.4064 11.7459 14.4942 11.8209 14.559 11.9175C14.6238 12.0141 14.6562 12.126 14.6562 12.2532C14.6562 12.3956 14.6157 12.5227 14.5346 12.6346C14.4563 12.7465 14.3483 12.852 14.2106 12.9512C14.0757 13.0503 13.9217 13.1533 13.7489 13.2601C13.5491 13.3821 13.3803 13.5194 13.2426 13.672C13.105 13.822 13.001 14.0216 12.9308 14.2708C12.8606 14.52 12.8255 14.8544 12.8255 15.2739ZM13.0077 17.7111C13.2318 17.917 13.5005 18.02 13.8137 18.02C14.0135 18.02 14.1985 17.973 14.3686 17.8789C14.5387 17.7823 14.6764 17.6539 14.7817 17.4937C14.8897 17.3309 14.9451 17.1504 14.9478 16.9521C14.9451 16.6622 14.829 16.4143 14.5994 16.2083C14.3726 16.0024 14.1107 15.8994 13.8137 15.8994C13.5005 15.8994 13.2318 16.0024 13.0077 16.2083C12.7863 16.4143 12.677 16.6622 12.6797 16.9521C12.677 17.2496 12.7863 17.5025 13.0077 17.7111Z" fill="url(#paint2_linear_45608_193848)"/>
</g>
</g>
<defs>
<linearGradient id="paint0_linear_45608_193848" x1="14" y1="0" x2="14" y2="28" gradientUnits="userSpaceOnUse">
<stop stop-color="#490E06"/>
<stop offset="0.515" stop-color="#873D13"/>
<stop offset="1" stop-color="#A88300"/>
</linearGradient>
<linearGradient id="paint1_linear_45608_193848" x1="15.0287" y1="26.6875" x2="15.0287" y2="1.3125" gradientUnits="userSpaceOnUse">
<stop stop-color="#FFF973"/>
<stop offset="1" stop-color="#FAC000"/>
</linearGradient>
<linearGradient id="paint2_linear_45608_193848" x1="14" y1="8" x2="14" y2="20" gradientUnits="userSpaceOnUse">
<stop stop-color="#490E06"/>
<stop offset="0.515" stop-color="#873D13"/>
<stop offset="1" stop-color="#A88300"/>
</linearGradient>
<clipPath id="clip0_45608_193848">
<rect width="28" height="28" fill="white"/>
</clipPath>
</defs>
</svg>
