<svg width="69" height="24" viewBox="0 0 69 24" fill="none" xmlns="http://www.w3.org/2000/svg">
<path d="M42.8056 17.3392C42.8056 18.7676 41.6475 19.9257 40.2191 19.9257H28.7603C27.3432 19.9257 26.1945 18.777 26.1945 17.3602V5.78801C26.1945 4.42192 27.3018 3.31458 28.6679 3.31458H40.3321C41.6982 3.31458 42.8056 4.42192 42.8056 5.7877V17.3392Z" fill="#EBAB1F"/>
<path d="M27.7619 9.77982V14.0012L27.0085 14.1704V9.94898L27.7619 9.77982ZM29.7564 10.3243C29.2915 10.4286 29.0061 10.952 29.0061 10.952V10.5586L28.275 10.718V13.2366C28.3643 13.2024 28.4611 13.1827 28.5623 13.1827C28.7252 13.1827 28.8765 13.2315 29.003 13.3149V12.0854C29.0087 11.4964 29.1775 11.1525 29.5302 11.0732C29.84 11.0037 29.9562 11.2346 29.9512 11.591V13.5141L30.6689 13.3521L30.6739 11.435C30.6802 10.4962 30.3014 10.2018 29.7564 10.3243ZM30.8427 10.1413L31.254 10.0489V9.45811L31.9814 9.29616V9.8857L32.4992 9.76917L32.492 10.4076L31.9736 10.5241L31.9698 12.1226C31.9733 12.3178 32.0074 12.4387 32.2264 12.3895C32.3119 12.3704 32.3802 12.3488 32.4582 12.319L32.4601 12.9186C32.2784 13.0047 32.1687 13.0395 32.0193 13.073C31.6033 13.1692 31.2443 12.8986 31.2443 12.3457L31.2468 10.6873L30.8352 10.7797L30.8427 10.1413ZM33.3757 11.3502C33.376 11.4175 33.3741 11.4726 33.3851 11.5375C33.4396 11.8614 33.5987 12.1129 33.9261 12.0396C34.2268 11.9723 34.3267 11.7724 34.3844 11.5519L35.1465 11.3809C35.0669 11.8692 34.8029 12.4848 33.9709 12.6711C33.2247 12.8384 32.7736 12.4077 32.6499 11.6716C32.5143 10.8646 32.7244 9.66235 33.8302 9.41426C34.6462 9.23132 35.0281 9.71404 35.133 10.3384C35.1747 10.5858 35.1722 10.7697 35.1578 10.9501L33.3757 11.3502ZM34.4345 10.5567C34.4364 10.5012 34.4285 10.4543 34.4226 10.4189C34.3781 10.1538 34.2321 9.94804 33.9101 10.0204C33.5771 10.095 33.413 10.3763 33.3826 10.7926L34.4345 10.5567ZM36.9577 9.62884C36.4512 9.74881 36.2069 10.1018 36.204 10.7941L36.1975 12.1098L35.4707 12.273V9.10163L36.1721 8.94438C36.1812 9.02207 36.1978 9.25701 36.1965 9.5145C36.3146 9.10853 36.4766 8.8999 36.9574 8.79214V9.62884H36.9577ZM39.5392 11.3364L39.5352 11.3373L38.8056 11.5021C38.7555 11.4109 38.705 11.2662 38.6831 11.1644C38.5797 11.3834 38.4382 11.6355 37.925 11.7508C37.38 11.8733 37.0702 11.5021 37.0025 11.1437C36.8424 10.2983 37.4492 9.88758 38.0701 9.72939C38.2934 9.67238 38.4814 9.63886 38.6935 9.58529L38.6828 9.39515C38.6781 9.16366 38.6245 8.88173 38.2345 8.96944C37.8871 9.04744 37.869 9.26734 37.838 9.42742L37.0952 9.59407C37.1046 9.08378 37.3274 8.59135 38.1876 8.39807C38.8607 8.24677 39.4205 8.44663 39.4155 9.27424V10.7785C39.4155 10.7785 39.4334 11.0322 39.4622 11.1544C39.4913 11.2784 39.5392 11.3364 39.5392 11.3364ZM38.6822 10.0993C38.5005 10.1401 38.3476 10.1867 38.207 10.2369C37.8142 10.3985 37.6817 10.5814 37.7305 10.8396C37.7637 11.0156 37.8909 11.1281 38.1262 11.0751C38.6283 10.9623 38.6722 10.4871 38.6806 10.1488L38.6822 10.0993ZM42.1608 9.69556C42.1201 10.3045 41.836 10.8643 41.0184 11.0479C40.3183 11.2051 39.8641 10.8358 39.7262 10.1075C39.5596 9.22662 39.8114 8.0253 40.8373 7.79506C41.7351 7.59333 42.0916 8.24207 42.1276 8.63802L41.4222 8.79653C41.3724 8.56284 41.2574 8.33761 40.9313 8.41091C40.4182 8.52619 40.3753 9.41739 40.4674 9.90481C40.5473 10.3277 40.738 10.4806 40.9996 10.422C41.2402 10.3681 41.378 10.1839 41.4335 9.85939L42.1608 9.69556ZM30.2263 15.0866L29.1975 14.3865C29.1975 14.3865 29.1972 16.0292 29.1972 16.1047C29.1972 16.1573 29.1543 16.2002 29.102 16.2002C29.0494 16.2002 29.0071 16.1573 29.0071 16.1047C29.0071 16.0862 29.0049 14.2261 29.0049 13.999C29.0049 13.7556 28.8072 13.5573 28.5638 13.5573C28.3195 13.5573 28.1221 13.7556 28.1221 13.999L28.1228 17.6675C28.1228 18.326 28.6587 18.8629 29.3175 18.8629H29.3965C30.0461 18.8629 30.5677 18.3363 30.5677 17.6863C30.5677 17.6863 30.5683 15.7698 30.5683 15.7504C30.5683 15.4957 30.4277 15.2411 30.2263 15.0866ZM27.2413 14.5397C27.0593 14.5835 26.9468 14.7665 26.9907 14.9485C27.0345 15.1305 27.2175 15.2429 27.3995 15.1991L27.9135 15.0757V14.378L27.2413 14.5397ZM27.2413 15.4384C27.0593 15.4823 26.9468 15.6652 26.9907 15.8472C27.0345 16.0292 27.2175 16.1417 27.3995 16.0978L27.9135 15.9744V15.2768L27.2413 15.4384ZM26.9907 16.7462C27.0342 16.9282 27.2175 17.0407 27.3995 16.9968L27.9135 16.8734V16.1758L27.2413 16.3371C27.0593 16.381 26.9471 16.5642 26.9907 16.7462Z" fill="black"/>
</svg>
