<svg xmlns="http://www.w3.org/2000/svg" width="104" height="40" fill="none" xmlns:v="https://vecta.io/nano"><g clip-path="url(#A)"><g clip-path="url(#B)"><path d="M9.979 40.032h69.342c1.444 0 2.64-1.102 2.809-2.587l1.773-15.503c.208-1.819-1.189-3.448-2.958-3.448H11.604c-1.444 0-2.64 1.102-2.809 2.587L7.022 36.584c-.208 1.819 1.189 3.448 2.958 3.448z" fill="#30bba5"/><g fill="#fdfffd"><path d="M20.684 32.335h.946l1.12-8.427H19.12l-.137.96h2.705l-1.005 7.467z"/><path d="M18.694 31.895h-.927c-.111.524-.285.967-.523 1.329s-.54.639-.906.828-.79.284-1.275.284c-.822 0-1.471-.166-1.95-.499s-.795-.856-.952-1.574-.156-1.653.005-2.813c.15-1.083.381-1.967.693-2.651s.723-1.19 1.228-1.52 1.128-.494 1.864-.494c.57 0 1.045.095 1.429.284a1.83 1.83 0 0 1 .853.831c.184.365.268.807.248 1.327h.889c.051-.718-.042-1.332-.28-1.84a2.46 2.46 0 0 0-1.125-1.162c-.511-.267-1.144-.401-1.898-.401-1.476 0-2.591.49-3.346 1.47s-1.249 2.319-1.483 4.015c-.175 1.262-.178 2.334-.012 3.214s.555 1.562 1.162 2.047 1.474.727 2.596.727c.66 0 1.243-.132 1.75-.398s.927-.653 1.26-1.161.565-1.123.699-1.843l.002-.002zm-2.183-.36l.561-4.163h-.927l-.561 4.163h.927zm8.937-5.024l.598-4.284h3.787l-1.372 10.149h.946l1.488-11.111h-5.68l-.733 5.245c-.252 1.812-.603 3.299-1.05 4.459s-1.008 2.022-1.683 2.584c-.607.507-1.324.783-2.148.834a2.63 2.63 0 0 1-.52-.09 1.9 1.9 0 0 1-.601-.28l-.522.821a2.69 2.69 0 0 0 .84.388 3.58 3.58 0 0 0 .484.096v.036h.039l.241-.009.288.009h.039v-.033c.877-.093 1.653-.401 2.321-.932.811-.643 1.483-1.618 2.017-2.923s.939-2.959 1.218-4.96l.003.002zm15.406-1.226a2.22 2.22 0 0 0-.885-1.057c-.403-.253-.877-.381-1.423-.381a3.11 3.11 0 0 0-1.614.43c-.486.288-.885.695-1.2 1.223s-.516 1.145-.606 1.849h.946c.08-.595.24-1.083.481-1.464s.526-.656.858-.825a2.3 2.3 0 0 1 1.057-.255c.373 0 .694.082.957.245s.45.389.564.674.148.606.102.96c-.075.566-.297.988-.666 1.265s-.862.416-1.477.416h-1.101l-.792 5.885H31.69l-.135.96h5.313l.811-5.885h.135c.901 0 1.633-.208 2.194-.626s.898-1.049 1.012-1.896c.078-.566.022-1.074-.163-1.526l-.005.005z"/><path d="M33.311 26.511l.213-1.641h2.512l.116-.96h-3.458l-.348 2.623c-.183 1.402-.484 2.685-.904 3.849s-1.026 2.126-1.821 2.883c-.681.65-1.515 1.019-2.498 1.111-.433-.05-.82-.179-1.161-.389-.445-.275-.835-.671-1.171-1.189l-.772.581a3.95 3.95 0 0 0 .873 1.061 3.75 3.75 0 0 0 1.192.682c.162.058.331.101.504.138v.099h.039l.492-.019.417.019h.039v-.073a4.79 4.79 0 0 0 2.498-1.18c.931-.836 1.653-1.913 2.164-3.232s.87-2.774 1.077-4.362l-.002-.003zm9.354-1.7c.418.185.945.278 1.578.278s1.186-.093 1.66-.28.847-.449 1.122-.789a2.34 2.34 0 0 0 .502-1.194c.06-.457.005-.864-.178-1.207s-.484-.608-.906-.794-.949-.28-1.582-.28-1.186.093-1.656.28-.843.451-1.119.793a2.41 2.41 0 0 0-.51 1.209c-.06.457.003.855.186 1.195s.483.603.903.789zm-.141-1.984a1.33 1.33 0 0 1 .33-.729c.181-.201.432-.353.751-.457s.699-.155 1.14-.155.804.051 1.09.155.492.255.616.454.168.443.129.73a1.3 1.3 0 0 1-.327.716c-.18.197-.426.348-.742.451s-.693.154-1.134.154-.805-.051-1.095-.154-.498-.253-.625-.451-.172-.437-.134-.716v.002z"/><path d="M45.21 32.376h.946l.966-7.347h-.946l-.966 7.347zm5.144-5.836c.343-.594.751-1.035 1.222-1.321s1.06-.43 1.765-.43c.556 0 1.023.101 1.396.303a1.91 1.91 0 0 1 .835.881c.183.385.263.852.242 1.399h.927c.051-.744-.043-1.381-.283-1.911a2.55 2.55 0 0 0-1.134-1.214c-.514-.28-1.15-.418-1.904-.418-.886 0-1.63.169-2.231.511s-1.119.861-1.549 1.562-.846 1.644-1.242 2.833c-.43 1.284-.864 2.336-1.3 3.155s-.931 1.442-1.482 1.87a3.01 3.01 0 0 1-1.735.634c-.562-.031-1.024-.168-1.386-.412-.415-.278-.697-.696-.846-1.251s-.166-1.246-.05-2.075l.772-5.625h-.946l-.772 5.625c-.141 1.037-.105 1.904.108 2.603s.598 1.224 1.153 1.576c.468.295 1.053.465 1.752.511v.016h.039l.16-.005.207.005h.25v-.04c.643-.084 1.216-.301 1.717-.654.655-.463 1.236-1.151 1.741-2.064s1.014-2.115 1.527-3.607c.355-1.041.705-1.859 1.05-2.452l-.003-.003zm4.167.832h-.946l-.348 2.682h.946l.348-2.682zm-3.219 5.344c-.351-.134-.648-.322-.889-.564s-.475-.555-.702-.937l-.792.5c.373.721.855 1.262 1.443 1.621s1.312.541 2.17.541c.718 0 1.35-.158 1.895-.474s.984-.762 1.315-1.335.55-1.245.652-2.014h-.946c-.085.673-.268 1.223-.55 1.649s-.622.737-1.02.926a2.97 2.97 0 0 1-1.288.286c-.507 0-.937-.067-1.288-.2v.002z"/><path d="M56.685 23.908l-.135.96h2.725l-.87 6.367c-.175 1.298-.519 2.373-1.032 3.229s-1.201 1.495-2.065 1.919-1.912.637-3.143.637c-.607 0-1.135-.047-1.582-.14s-.822-.2-1.123-.32l.424-3.144h-.946l-.522 3.843c.471.2 1.026.37 1.663.511s1.351.21 2.143.21c1.356 0 2.528-.249 3.523-.746s1.791-1.234 2.393-2.208 1-2.171 1.194-3.591l1.024-7.528h-3.671zm7.032 3.624h.946c.121-.931.454-1.626.999-2.079s1.249-.682 2.111-.682c.664 0 1.204.135 1.621.404s.702.682.858 1.237.172 1.256.052 2.102l-.541 3.863h.927l.561-3.863c.141-.99.103-1.837-.115-2.541s-.606-1.24-1.162-1.61-1.263-.555-2.12-.555c-1.156 0-2.091.308-2.8.922s-1.155 1.548-1.335 2.803l-.002-.002z"/><path d="M65.688 27.712l-.927 6.545h-3.786l1.681-12.031h3.805l-.174 1.24h.948l.289-2.202h-5.699l-1.933 13.953h5.7l1.042-7.506h-.946zm7.511 1.281c-.15 1.1-.471 2.059-.964 2.876s-1.093 1.444-1.798 1.877c-.619.381-1.264.594-1.936.64-.318-.022-.606-.089-.859-.207a2.37 2.37 0 0 1-.813-.625l-.657.681c.312.403.669.69 1.072.863.27.115.583.188.933.227v.031h.039l.268-.009.239.009h.076v-.037c.696-.084 1.371-.316 2.023-.699.834-.491 1.548-1.217 2.143-2.176s.99-2.11 1.182-3.453h-.946l-.001.002zm5.448 4.724c-.252.182-.543.334-.873.457s-.727.183-1.194.183c-.67 0-1.222-.11-1.656-.33s-.771-.564-1.011-1.03l-.792.48a2.83 2.83 0 0 0 .706.973c.306.275.682.488 1.126.64s.948.229 1.509.229c.592 0 1.129-.081 1.609-.244s.955-.421 1.423-.777l.598-4.345h-.946l-.502 3.764h.001zm.927-9.809l.387-2.723h-4.019c-.169.643-.341 1.13-.51 1.461s-.456.612-.858.842-.996.404-1.782.519l-.598 4.384h2.666l.135-.96h-1.719l.367-2.642a4.38 4.38 0 0 0 1.366-.507 3.36 3.36 0 0 0 .985-.88c.267-.354.475-.774.624-1.257h2.26l-.387 2.723h1.275l-.348 2.563h-1.255l-.387 2.903h.946l.251-1.942h1.255l.618-4.485h-1.275l.001.002z"/></g><g fill="#142d25"><path d="M19.027 7.582c.277-.489.462-1.053.553-1.687.205-1.324.007-2.431-.592-3.321s-1.49-1.548-2.675-1.978-2.559-.643-4.126-.643H3.053L.109 19.128h10.337c1.691 0 3.132-.19 4.324-.57s2.122-.938 2.794-1.677 1.082-1.64 1.234-2.708c.091-.649.061-1.262-.096-1.841s-.441-1.1-.854-1.568-.947-.854-1.605-1.158c.648-.184 1.206-.444 1.67-.784a3.93 3.93 0 0 0 1.113-1.243v.002zm-2.666.748c-.478.295-1.008.493-1.588.592l-.18 1.128c.697.293 1.267.643 1.707 1.045s.751.854.928 1.354.221 1.038.128 1.617a3.49 3.49 0 0 1-1.045 2.042c-.576.557-1.367.98-2.37 1.269s-2.199.431-3.585.431H1.791L4.345 1.273h7.662c1.285 0 2.416.152 3.389.455s1.712.792 2.213 1.469.667 1.548.497 2.616c-.079.51-.27.982-.574 1.42a3.9 3.9 0 0 1-1.171 1.098V8.33zm-6.908.068h1.474l.541-3.439H9.994l-.541 3.439zm-.84 5.532h1.472l.541-3.469H9.154l-.541 3.469zm20.238-5.807h-1.472l-.48 3.029h1.472l.48-3.029zm17.068 8.942a6.01 6.01 0 0 1-1.357.628c-.513.169-1.131.252-1.856.252-1.15 0-2.095-.173-2.834-.517s-1.288-.878-1.644-1.602l-1.262.605c.257.568.637 1.066 1.141 1.491s1.129.756 1.875.991 1.593.352 2.542.352 1.756-.111 2.503-.335 1.486-.579 2.213-1.068l.931-5.972h-1.472l-.781 5.173.002.002zM47.962-.158h-6.251c-.264.884-.529 1.553-.793 2.008s-.709.842-1.334 1.158-1.549.555-2.771.713l-.931 6.025h4.147l.21-1.32h-2.673l.571-3.631c.809-.147 1.518-.378 2.125-.696a5.06 5.06 0 0 0 1.532-1.209c.415-.489.739-1.064.97-1.728h3.515l-.602 3.742h1.982l-.541 3.522h-1.952l-.602 3.99h1.472l.39-2.67h1.952l.961-6.164h-1.982l.602-3.742.002.002zm-10.188 10.73c-.541 1.604-1.411 2.964-2.607 4.084s-2.535 1.956-4.012 2.512c-1.378.519-2.724.792-4.037.827-1.35-.034-2.514-.243-3.489-.636a4.37 4.37 0 0 1-2.356-2.144c-.504-1.001-.632-2.317-.385-3.953.212-1.42.618-2.614 1.217-3.582a5.83 5.83 0 0 1 2.44-2.208c1.028-.504 2.283-.756 3.764-.756 1.334 0 2.454.171 3.356.513s1.556.835 1.959 1.482.534 1.422.394 2.326c-.133.824-.413 1.508-.837 2.05s-1.01.944-1.749 1.211-1.64.399-2.701.399c-.541 0-1.068-.058-1.581-.175s-.959-.278-1.334-.485l-.69 1.156c.487.271 1.052.476 1.689.617s1.306.209 2.008.209c1.271 0 2.37-.186 3.302-.555s1.675-.91 2.232-1.621.914-1.572 1.075-2.584c.196-1.262.03-2.332-.497-3.21s-1.343-1.54-2.451-1.984-2.428-.666-3.963-.666c-1.742 0-3.249.31-4.522.927s-2.288 1.499-3.046 2.646-1.262 2.514-1.504 4.103c-.296 1.969-.135 3.569.487 4.793s1.581 2.108 2.88 2.65c1.131.47 2.451.737 3.963.797v.015h.061l.275-.006.354.006h.271v-.036c1.355-.096 2.72-.406 4.091-.938a13.06 13.06 0 0 0 4.515-2.95c1.331-1.318 2.288-2.926 2.869-4.827h-1.441v-.004z"/></g></g></g><defs><clipPath id="A"><path fill="#fff" d="M0 0h84v40H0z"/></clipPath><clipPath id="B"><path fill="#fff" d="M0 0h84v40H0z"/></clipPath></defs></svg>