<svg width="160" height="36" viewBox="0 0 160 36" fill="none" xmlns="http://www.w3.org/2000/svg">
<path d="M51.0929 34.4045H153.22C155.347 34.4045 157.109 32.7459 157.358 30.5116L159.97 7.18754C160.276 4.45041 158.218 2 155.614 2H53.486C51.3598 2 49.5975 3.6586 49.3483 5.89286L46.7369 29.217C46.4303 31.9541 48.4881 34.4045 51.0929 34.4045Z" fill="#30BBA5"/>
<path d="M17.8895 14.8541C18.152 14.3491 18.3262 13.7668 18.4123 13.1117C18.6063 11.7443 18.4189 10.6018 17.852 9.68204C17.2852 8.76231 16.4427 8.08299 15.3222 7.63967C14.2018 7.19634 12.9027 6.97578 11.4205 6.97578H2.78345L0 26.7776H9.77517C11.3742 26.7776 12.7373 26.5813 13.8643 26.1887C14.9914 25.7961 15.8714 25.2204 16.5066 24.4573C17.1418 23.6964 17.53 22.7634 17.6734 21.6606C17.7594 20.9901 17.7307 20.3571 17.583 19.7594C17.4352 19.1617 17.1661 18.6235 16.7757 18.1405C16.3853 17.6574 15.8802 17.2582 15.2583 16.945C15.8714 16.7554 16.3986 16.4863 16.8375 16.1356C17.2764 15.7849 17.6271 15.357 17.8895 14.8519V14.8541ZM15.3685 15.6261C14.9164 15.9305 14.4157 16.1356 13.8665 16.2371L13.6967 17.4016C14.3562 17.7038 14.8943 18.0655 15.3112 18.4801C15.7281 18.897 16.0214 19.3624 16.189 19.8785C16.3566 20.3946 16.3986 20.9504 16.3103 21.5481C16.1956 22.3774 15.867 23.081 15.3222 23.6567C14.7774 24.2323 14.0297 24.669 13.0813 24.9668C12.1329 25.2645 11.0015 25.4123 9.69136 25.4123H1.59023L4.00535 8.33884H11.2507C12.466 8.33884 13.5357 8.49543 14.4554 8.80863C15.3752 9.12182 16.0743 9.6269 16.5485 10.3261C17.0227 11.0252 17.1793 11.9251 17.0183 13.0279C16.9433 13.5551 16.7625 14.0425 16.4757 14.4946C16.189 14.9446 15.8207 15.3239 15.3685 15.6283V15.6261Z" fill="#142D25"/>
<path d="M8.83559 15.6967H10.2295L10.7412 12.1457H9.34729L8.83559 15.6967Z" fill="#142D25"/>
<path d="M8.04157 21.4092H9.4333L9.94499 17.8273H8.55327L8.04157 21.4092Z" fill="#142D25"/>
<path d="M27.1795 15.4122H25.7877L25.3334 18.5397H26.7251L27.1795 15.4122Z" fill="#142D25"/>
<path d="M43.32 24.647C42.9494 24.905 42.5215 25.1212 42.0363 25.2954C41.5511 25.4696 40.9666 25.5557 40.2807 25.5557C39.1933 25.5557 38.3 25.377 37.6009 25.0219C36.9017 24.6668 36.3834 24.1154 36.0459 23.3677L34.8527 23.9919C35.0953 24.5786 35.4548 25.0925 35.9312 25.5314C36.4098 25.9703 36.9987 26.3122 37.7045 26.5548C38.4081 26.7974 39.2109 26.9187 40.1086 26.9187C41.0063 26.9187 41.7694 26.804 42.4752 26.5724C43.181 26.3409 43.8802 25.9747 44.5683 25.4696L45.4483 19.3028H44.0566L43.3177 24.6448L43.32 24.647Z" fill="#142D25"/>
<path d="M45.2521 6.86109H39.3411C39.0918 7.77421 38.8404 8.46455 38.5912 8.93435C38.3419 9.40414 37.9207 9.80335 37.3296 10.1298C36.7385 10.4584 35.8651 10.7032 34.7093 10.8664L33.8293 17.0884H37.7509L37.9494 15.7254H35.4217L35.9621 11.9759C36.7275 11.8237 37.398 11.5855 37.9714 11.2568C38.5449 10.9282 39.0279 10.5135 39.4205 10.0085C39.8131 9.50559 40.1197 8.91008 40.338 8.22415H43.6618L43.0928 12.0883H44.9675L44.4558 15.7254H42.6098L42.0407 19.8454H43.4324L43.8008 17.0884H45.6469L46.5556 10.7231H44.6808L45.2499 6.85889L45.2521 6.86109Z" fill="#142D25"/>
<path d="M35.618 17.942C35.1064 19.5984 34.2837 21.0033 33.1522 22.1591C32.0185 23.3148 30.7547 24.1794 29.3586 24.7528C28.0551 25.2888 26.7825 25.5711 25.5407 25.6064C24.2637 25.5711 23.1631 25.355 22.2412 24.9491C21.2332 24.5058 20.4899 23.7691 20.0135 22.7347C19.5371 21.7003 19.4158 20.3417 19.6496 18.6522C19.8503 17.1855 20.2341 15.9525 20.8009 14.9534C21.3677 13.9543 22.1353 13.1933 23.108 12.6728C24.0806 12.1523 25.2672 11.892 26.6678 11.892C27.9294 11.892 28.9881 12.0685 29.8416 12.4214C30.6952 12.7743 31.3127 13.2838 31.6943 13.9521C32.0759 14.6204 32.1994 15.421 32.0671 16.3539C31.9413 17.2053 31.6767 17.9111 31.2752 18.4713C30.8716 19.0293 30.3202 19.4462 29.6211 19.7219C28.9219 19.9976 28.0705 20.1343 27.067 20.1343C26.5553 20.1343 26.0568 20.0748 25.5716 19.9535C25.0864 19.8322 24.6651 19.6667 24.31 19.4528L23.6571 20.646C24.1181 20.9261 24.6519 21.1379 25.254 21.2834C25.8561 21.4268 26.4891 21.4996 27.153 21.4996C28.355 21.4996 29.3939 21.3077 30.2761 20.9261C31.1561 20.5424 31.8597 19.9866 32.3869 19.2521C32.914 18.5198 33.2514 17.6288 33.4036 16.5833C33.5889 15.2798 33.4323 14.1748 32.9338 13.2683C32.4354 12.3618 31.6634 11.6781 30.6158 11.2193C29.5681 10.7606 28.3198 10.5312 26.8685 10.5312C25.2209 10.5312 23.7961 10.851 22.5918 11.4884C21.3898 12.1258 20.4282 13.0367 19.7113 14.2211C18.9923 15.4055 18.5181 16.8171 18.2887 18.4581C18.0086 20.4916 18.1608 22.1436 18.7497 23.4074C19.3364 24.6734 20.2451 25.5843 21.4736 26.1446C22.5433 26.6298 23.7917 26.9055 25.2209 26.9672V26.9827H25.2783C25.3643 26.9827 25.4525 26.9783 25.5385 26.9761C25.651 26.9783 25.7613 26.9827 25.8738 26.9827H26.1296V26.9452C27.4111 26.8459 28.7013 26.5261 29.9982 25.9769C31.5862 25.3064 33.0088 24.2919 34.2682 22.931C35.5276 21.5702 36.4319 19.9094 36.9811 17.9464H35.618V17.942Z" fill="#142D25"/>
<path d="M66.4806 22.6862H67.8724L69.5199 10.7253H64.1802L63.9795 12.0883H67.9584L66.4806 22.6862Z" fill="#FDFFFD"/>
<path d="M63.5538 22.062H62.1908C62.0275 22.8053 61.7717 23.4339 61.421 23.9478C61.0703 24.4639 60.627 24.8543 60.0888 25.1234C59.5507 25.3924 58.9265 25.527 58.2141 25.527C57.0054 25.527 56.0504 25.291 55.3468 24.819C54.6432 24.347 54.1779 23.6037 53.9463 22.5847C53.7147 21.568 53.7169 20.238 53.9529 18.5926C54.1734 17.0553 54.5131 15.8003 54.9719 14.8299C55.4328 13.8594 56.035 13.1404 56.7782 12.6728C57.5237 12.2052 58.4368 11.9714 59.5198 11.9714C60.3579 11.9714 61.0571 12.106 61.6217 12.3751C62.1864 12.6441 62.6054 13.0367 62.8767 13.5551C63.1502 14.0712 63.2715 14.6998 63.2406 15.4386H64.5485C64.6235 14.4196 64.4868 13.5484 64.1361 12.8272C63.7854 12.106 63.234 11.5546 62.4819 11.1774C61.7298 10.7981 60.799 10.6084 59.6896 10.6084C57.5193 10.6084 55.8784 11.3032 54.769 12.6949C53.6595 14.0844 52.9317 15.9856 52.5876 18.3941C52.3296 20.1851 52.3252 21.7069 52.57 22.9553C52.817 24.2036 53.3861 25.1719 54.2793 25.86C55.1726 26.5482 56.4474 26.8923 58.0972 26.8923C59.0676 26.8923 59.9256 26.7048 60.6711 26.3276C61.4166 25.9505 62.0342 25.4013 62.5238 24.68C63.0134 23.9588 63.3553 23.0854 63.5516 22.0642L63.5538 22.062Z" fill="#FDFFFD"/>
<path d="M60.3425 21.5503L61.1674 15.6415H59.8043L58.9794 21.5503H60.3425Z" fill="#FDFFFD"/>
<path d="M73.4878 14.4196L74.3679 8.3388H79.937L77.9189 22.7435H79.3106L81.4985 6.97354H73.1438L72.0652 14.4174C71.6947 16.9891 71.1786 19.0999 70.5213 20.7452C69.864 22.3906 69.0392 23.6147 68.0466 24.4131C67.1534 25.1321 66.0991 25.5247 64.8882 25.5975C64.6192 25.5777 64.3633 25.5358 64.1229 25.4696C63.7766 25.3748 63.4811 25.2424 63.2385 25.0726L62.4709 26.2371C62.826 26.4798 63.2385 26.6628 63.706 26.7885C63.9332 26.8481 64.1692 26.8944 64.4185 26.9253V26.976H64.4758C64.5971 26.976 64.7118 26.9694 64.8309 26.9628C64.9699 26.9716 65.111 26.976 65.2544 26.976H65.3117V26.9297C66.602 26.7974 67.7423 26.3607 68.726 25.6063C69.9192 24.6932 70.9073 23.3103 71.6925 21.4576C72.4755 19.6049 73.0732 17.2582 73.4834 14.4174L73.4878 14.4196Z" fill="#FDFFFD"/>
<path d="M96.1458 12.6794C95.8701 12.0398 95.4378 11.5391 94.8445 11.1796C94.2512 10.8201 93.5542 10.6393 92.7514 10.6393C91.8846 10.6393 91.0928 10.8422 90.3782 11.2502C89.6636 11.6582 89.0769 12.2361 88.6137 12.986C88.1505 13.7359 87.855 14.6115 87.7227 15.6107H89.1144C89.2313 14.7659 89.4673 14.0734 89.8224 13.533C90.1775 12.9926 90.5965 12.6022 91.084 12.3618C91.5714 12.1214 92.0897 12.0001 92.6389 12.0001C93.1881 12.0001 93.6601 12.117 94.0461 12.3486C94.4321 12.5802 94.7078 12.9 94.8754 13.3058C95.043 13.7117 95.0937 14.166 95.0254 14.6689C94.9151 15.4717 94.5886 16.0716 94.0461 16.4642C93.5035 16.8568 92.7779 17.0553 91.8736 17.0553H90.2547L89.0901 25.4079H82.6697L82.4711 26.7709H90.2855L91.4788 18.4184H91.6773C93.0028 18.4184 94.0792 18.1228 94.904 17.5295C95.7289 16.9362 96.2252 16.0408 96.3928 14.8387C96.5075 14.0359 96.4259 13.3146 96.1524 12.6728L96.1458 12.6794Z" fill="#FDFFFD"/>
<path d="M85.0517 14.4196L85.3649 12.0905H89.0592L89.2291 10.7275H84.143L83.6313 14.4505C83.3622 16.44 82.9189 18.2618 82.3013 19.9138C81.6837 21.568 80.7927 22.931 79.6237 24.0051C78.6224 24.9271 77.3961 25.452 75.9492 25.5821C75.3118 25.5115 74.7428 25.3285 74.2421 25.0307C73.587 24.6403 73.0136 24.0779 72.5195 23.3435L71.3836 24.1683C71.7277 24.7506 72.1556 25.2535 72.6673 25.6748C73.179 26.096 73.7635 26.418 74.4207 26.643C74.659 26.7246 74.9082 26.7864 75.1618 26.8393V26.9805H75.2192C75.464 26.9805 75.7066 26.9716 75.9426 26.954C76.1433 26.9716 76.3462 26.9805 76.5558 26.9805H76.6131V26.8768C78.0225 26.6607 79.2466 26.1026 80.2876 25.2028C81.6573 24.0162 82.7182 22.4877 83.4703 20.6151C84.2224 18.7426 84.7495 16.6782 85.0539 14.4241L85.0517 14.4196Z" fill="#FDFFFD"/>
<path d="M98.8101 12.0067C99.4255 12.2692 100.2 12.4015 101.13 12.4015C102.061 12.4015 102.875 12.2692 103.572 12.0045C104.267 11.7399 104.818 11.3671 105.222 10.8841C105.628 10.4033 105.872 9.83864 105.961 9.1902C106.056 8.53514 105.967 7.96389 105.698 7.47645C105.429 6.98902 104.986 6.61407 104.366 6.3494C103.746 6.08473 102.97 5.95239 102.039 5.95239C101.108 5.95239 100.295 6.08473 99.6042 6.3494C98.9116 6.61407 98.3646 6.98902 97.9588 7.47425C97.553 7.95948 97.3037 8.53073 97.2089 9.1902C97.1207 9.83864 97.2133 10.4033 97.4824 10.8863C97.7515 11.3693 98.1926 11.7421 98.8101 12.0067ZM98.6028 9.1902C98.6602 8.78437 98.8212 8.4403 99.0881 8.15578C99.3549 7.87125 99.7233 7.65511 100.193 7.50733C100.663 7.35956 101.221 7.28677 101.869 7.28677C102.518 7.28677 103.051 7.35956 103.473 7.50733C103.894 7.65511 104.196 7.86905 104.379 8.15136C104.562 8.43368 104.626 8.77996 104.569 9.18799C104.512 9.585 104.353 9.92466 104.088 10.2048C103.826 10.4849 103.462 10.6988 102.996 10.8444C102.531 10.99 101.977 11.0627 101.329 11.0627C100.68 11.0627 100.145 10.99 99.7188 10.8444C99.2932 10.6988 98.9866 10.4849 98.7991 10.2048C98.6116 9.92466 98.5455 9.585 98.6028 9.18799V9.1902Z" fill="#FDFFFD"/>
<path d="M102.553 22.7435H103.945L105.365 12.3155H103.973L102.553 22.7435Z" fill="#FDFFFD"/>
<path d="M110.118 14.4616C110.623 13.619 111.223 12.9926 111.916 12.5868C112.608 12.1788 113.475 11.9759 114.512 11.9759C115.33 11.9759 116.016 12.1192 116.565 12.4059C117.114 12.6927 117.525 13.1095 117.794 13.6565C118.063 14.2035 118.18 14.8652 118.149 15.6415H119.512C119.587 14.5851 119.448 13.6808 119.095 12.9287C118.74 12.1766 118.184 11.6031 117.428 11.2061C116.671 10.8091 115.736 10.6128 114.626 10.6128C113.323 10.6128 112.229 10.8532 111.345 11.3384C110.46 11.8215 109.699 12.5603 109.066 13.5551C108.433 14.5498 107.822 15.8886 107.24 17.5758C106.607 19.3977 105.969 20.8908 105.328 22.0532C104.686 23.2155 103.958 24.1 103.149 24.7065C102.405 25.2623 101.554 25.5601 100.597 25.6064C99.7696 25.5623 99.0903 25.3682 98.5587 25.0219C97.9478 24.6271 97.5331 24.0338 97.3148 23.2464C97.0942 22.459 97.07 21.4775 97.242 20.302L98.3779 12.3177H96.9861L95.8503 20.302C95.6429 21.7731 95.6959 23.0038 96.0091 23.9963C96.3222 24.9888 96.8891 25.7343 97.7052 26.2328C98.3933 26.6518 99.2535 26.8922 100.281 26.9584V26.9805H100.339C100.418 26.9805 100.495 26.9761 100.575 26.9739C100.676 26.9761 100.775 26.9805 100.879 26.9805H101.247V26.9231C102.194 26.804 103.036 26.4952 103.773 25.9946C104.737 25.3373 105.59 24.3602 106.333 23.0656C107.077 21.7709 107.824 20.0637 108.579 17.9464C109.101 16.4686 109.615 15.3085 110.123 14.466L110.118 14.4616Z" fill="#FDFFFD"/>
<path d="M116.248 15.6415H114.856L114.344 19.4484H115.736L116.248 15.6415Z" fill="#FDFFFD"/>
<path d="M111.512 23.2266C110.996 23.0369 110.559 22.77 110.204 22.4259C109.849 22.0819 109.505 21.6385 109.172 21.096L108.007 21.8062C108.557 22.8296 109.265 23.5971 110.129 24.1066C110.994 24.6183 112.059 24.8741 113.321 24.8741C114.377 24.8741 115.306 24.6492 116.109 24.2014C116.911 23.7537 117.555 23.1207 118.043 22.3068C118.533 21.493 118.852 20.5402 119.002 19.4484H117.611C117.485 20.4034 117.216 21.1842 116.801 21.7885C116.386 22.3951 115.886 22.834 115.301 23.103C114.717 23.3743 114.084 23.5089 113.407 23.5089C112.661 23.5089 112.028 23.414 111.512 23.2244V23.2266Z" fill="#FDFFFD"/>
<path d="M119.43 10.7253L119.231 12.0884H123.239L121.96 21.1247C121.702 22.9664 121.197 24.4926 120.442 25.7079C119.688 26.921 118.676 27.8297 117.405 28.4318C116.135 29.0339 114.593 29.3361 112.782 29.3361C111.889 29.3361 111.113 29.2699 110.455 29.1376C109.798 29.0053 109.247 28.8531 108.803 28.6832L109.428 24.2213H108.036L107.268 29.6758C107.961 29.9603 108.777 30.2007 109.714 30.4014C110.652 30.6021 111.702 30.6991 112.866 30.6991C114.86 30.6991 116.585 30.3463 118.047 29.6405C119.507 28.9347 120.681 27.8892 121.567 26.5063C122.454 25.1234 123.038 23.4251 123.323 21.4092L124.829 10.7253H119.43Z" fill="#FDFFFD"/>
<path d="M129.772 15.8687H131.164C131.343 14.5476 131.832 13.5617 132.633 12.9176C133.433 12.2736 134.47 11.9494 135.738 11.9494C136.715 11.9494 137.509 12.1413 138.123 12.5228C138.733 12.9066 139.155 13.4911 139.384 14.2785C139.614 15.0659 139.638 16.0606 139.461 17.2626L138.665 22.7457H140.028L140.853 17.2626C141.06 15.8577 141.005 14.6556 140.683 13.6565C140.361 12.6574 139.792 11.8965 138.974 11.3715C138.156 10.8466 137.117 10.5841 135.855 10.5841C134.155 10.5841 132.781 11.0208 131.737 11.892C130.694 12.7632 130.039 14.0888 129.774 15.8709L129.772 15.8687Z" fill="#FDFFFD"/>
<path d="M132.67 16.1246L131.307 25.4145H125.738L128.211 8.33884H133.806L133.55 10.0989H134.944L135.37 6.97358H126.989L124.146 26.7776H132.529L134.062 16.1246H132.67Z" fill="#FDFFFD"/>
<path d="M143.718 17.942C143.498 19.5035 143.026 20.8644 142.3 22.0245C141.574 23.1847 140.692 24.0735 139.655 24.6889C138.745 25.2292 137.796 25.5314 136.808 25.5976C136.34 25.5667 135.917 25.4719 135.544 25.3042C135.088 25.0991 134.688 24.8036 134.349 24.4176L133.383 25.3836C133.842 25.9549 134.366 26.3629 134.96 26.6077C135.357 26.7709 135.818 26.8746 136.332 26.9297V26.9739H136.389C136.521 26.9739 136.651 26.9672 136.784 26.9606C136.901 26.965 137.013 26.9739 137.134 26.9739H137.247V26.9209C138.27 26.8018 139.263 26.4732 140.222 25.9284C141.449 25.2314 142.498 24.2014 143.374 22.8406C144.25 21.4797 144.83 19.8454 145.112 17.9398H143.72L143.718 17.942Z" fill="#FDFFFD"/>
<path d="M151.731 24.647C151.361 24.905 150.933 25.1212 150.447 25.2954C149.962 25.4696 149.378 25.5557 148.692 25.5557C147.706 25.5557 146.894 25.3991 146.257 25.0881C145.619 24.7771 145.123 24.2875 144.77 23.6258L143.606 24.3073C143.848 24.8388 144.195 25.2976 144.644 25.688C145.094 26.0784 145.648 26.3806 146.301 26.5967C146.954 26.8128 147.695 26.9209 148.52 26.9209C149.391 26.9209 150.181 26.8062 150.886 26.5746C151.592 26.3431 152.291 25.9769 152.979 25.4719L153.859 19.305H152.468L151.729 24.647H151.731Z" fill="#FDFFFD"/>
<path d="M153.094 10.7253L153.663 6.86109H147.752C147.503 7.77421 147.251 8.46456 147.002 8.93435C146.753 9.40414 146.332 9.80335 145.741 10.1298C145.15 10.4584 144.276 10.7032 143.12 10.8664L142.24 17.0884H146.162L146.36 15.7254H143.833L144.373 11.9759C145.139 11.8237 145.809 11.5855 146.382 11.2568C146.956 10.9282 147.439 10.5135 147.832 10.0085C148.224 9.5056 148.531 8.91009 148.749 8.22415H152.073L151.504 12.0883H153.379L152.867 15.7254H151.021L150.452 19.8454H151.844L152.212 17.0884H154.058L154.967 10.7231H153.092L153.094 10.7253Z" fill="#FDFFFD"/>
</svg>
