<svg width="69" height="24" viewBox="0 0 69 24" fill="none" xmlns="http://www.w3.org/2000/svg">
<path d="M15.3804 7.41769H10.7029V15.8234H15.3804V7.41769Z" fill="#FF5F00"/>
<path d="M10.9992 11.6201C10.9984 10.8105 11.1819 10.0114 11.5356 9.28328C11.8894 8.55512 12.4041 7.91699 13.0409 7.41719C12.2523 6.79733 11.3052 6.41184 10.3079 6.30479C9.31054 6.19775 8.3032 6.37346 7.40101 6.81185C6.49881 7.25025 5.73815 7.93363 5.20598 8.78389C4.67381 9.63415 4.3916 10.617 4.3916 11.6201C4.3916 12.6231 4.67381 13.606 5.20598 14.4562C5.73815 15.3065 6.49881 15.9899 7.40101 16.4283C8.3032 16.8667 9.31054 17.0424 10.3079 16.9353C11.3052 16.8283 12.2523 16.4428 13.0409 15.8229C12.4041 15.3231 11.8894 14.685 11.5356 13.9568C11.1819 13.2287 10.9984 12.4296 10.9992 11.6201Z" fill="#EB001B"/>
<path d="M21.6912 11.6202C21.6912 12.6233 21.409 13.6061 20.8769 14.4564C20.3448 15.3066 19.5841 15.99 18.682 16.4284C17.7798 16.8668 16.7725 17.0425 15.7751 16.9355C14.7778 16.8284 13.8307 16.4429 13.0421 15.8231C13.6784 15.3228 14.1927 14.6845 14.5464 13.9565C14.9001 13.2285 15.0839 12.4296 15.0839 11.6202C15.0839 10.8108 14.9001 10.012 14.5464 9.28392C14.1927 8.55588 13.6784 7.91765 13.0421 7.41735C13.8307 6.79748 14.7778 6.41199 15.7751 6.30494C16.7725 6.1979 17.7798 6.37362 18.682 6.81202C19.5841 7.25041 20.3448 7.9338 20.8769 8.78406C21.409 9.63432 21.6912 10.6172 21.6912 11.6202Z" fill="#F79E1B"/>
<path d="M31.0344 13.527V11.2815C31.0344 10.4225 30.5111 9.86002 29.6129 9.86002C29.1638 9.86002 28.6755 10.0083 28.3397 10.4966C28.0781 10.0868 27.7031 9.86002 27.1406 9.86002C26.7657 9.86002 26.3907 9.97339 26.0942 10.3833V9.93415H25.3093V13.527H26.0942V11.5431C26.0942 10.9065 26.4299 10.6056 26.9531 10.6056C27.4764 10.6056 27.738 10.9414 27.738 11.5431V13.527H28.5228V11.5431C28.5228 10.9065 28.8978 10.6056 29.3818 10.6056C29.9051 10.6056 30.1667 10.9414 30.1667 11.5431V13.527H31.0344ZM42.6763 9.93415H41.4031V8.84844H40.6182V9.93415H39.9075V10.6449H40.6182V12.2931C40.6182 13.1171 40.954 13.6011 41.8522 13.6011C42.1879 13.6011 42.5629 13.4878 42.8245 13.3395L42.5978 12.6637C42.3711 12.8119 42.1095 12.8512 41.922 12.8512C41.547 12.8512 41.3987 12.6244 41.3987 12.2538V10.6449H42.6719V9.93415H42.6763ZM49.3388 9.85566C48.8897 9.85566 48.5888 10.0824 48.4013 10.3789V9.92978H47.6165V13.5226H48.4013V11.4995C48.4013 10.9021 48.6629 10.562 49.1513 10.562C49.2995 10.562 49.487 10.6013 49.6396 10.6361L49.8664 9.88618C49.7094 9.85566 49.487 9.85566 49.3388 9.85566ZM39.2709 10.2306C38.8959 9.96903 38.3727 9.85566 37.8102 9.85566C36.912 9.85566 36.3147 10.3048 36.3147 11.0155C36.3147 11.6129 36.7638 11.953 37.5486 12.062L37.9236 12.1012C38.3335 12.1753 38.5602 12.2887 38.5602 12.4762C38.5602 12.7378 38.2593 12.9253 37.7361 12.9253C37.2129 12.9253 36.7986 12.7378 36.537 12.5503L36.162 13.1477C36.5719 13.4485 37.1344 13.5968 37.6969 13.5968C38.7433 13.5968 39.345 13.1084 39.345 12.4369C39.345 11.8003 38.8567 11.4646 38.1111 11.3512L37.7361 11.312C37.4004 11.2727 37.1387 11.1986 37.1387 10.9762C37.1387 10.7146 37.4004 10.5664 37.8146 10.5664C38.2637 10.5664 38.7128 10.7539 38.9395 10.8672L39.2709 10.2306ZM60.1523 9.85566C59.7032 9.85566 59.4023 10.0824 59.2148 10.3789V9.92978H58.43V13.5226H59.2148V11.4995C59.2148 10.9021 59.4764 10.562 59.9648 10.562C60.113 10.562 60.3005 10.6013 60.4531 10.6361L60.6799 9.8949C60.5272 9.85566 60.3049 9.85566 60.1523 9.85566ZM50.1236 11.7306C50.1236 12.8163 50.8736 13.6011 52.0334 13.6011C52.5567 13.6011 52.9317 13.4878 53.3066 13.1913L52.9317 12.5547C52.6308 12.7814 52.3343 12.8904 51.9942 12.8904C51.3576 12.8904 50.9085 12.4413 50.9085 11.7306C50.9085 11.0547 51.3576 10.6056 51.9942 10.5707C52.3299 10.5707 52.6308 10.6841 52.9317 10.9065L53.3066 10.2699C52.9317 9.96903 52.5567 9.86002 52.0334 9.86002C50.8736 9.85566 50.1236 10.6449 50.1236 11.7306ZM57.3835 11.7306V9.93415H56.5986V10.3833C56.337 10.0475 55.962 9.86002 55.4737 9.86002C54.4621 9.86002 53.6773 10.6449 53.6773 11.7306C53.6773 12.8163 54.4621 13.6011 55.4737 13.6011C55.9969 13.6011 56.3719 13.4136 56.5986 13.0779V13.527H57.3835V11.7306ZM54.5014 11.7306C54.5014 11.094 54.9112 10.5707 55.5871 10.5707C56.2237 10.5707 56.6728 11.0591 56.6728 11.7306C56.6728 12.3672 56.2237 12.8904 55.5871 12.8904C54.9156 12.8512 54.5014 12.3628 54.5014 11.7306ZM45.1093 9.85566C44.0629 9.85566 43.3129 10.6056 43.3129 11.7262C43.3129 12.8512 44.0629 13.5968 45.1486 13.5968C45.6718 13.5968 46.195 13.4485 46.6093 13.1084L46.2343 12.5459C45.9334 12.7727 45.5584 12.9209 45.1878 12.9209C44.6995 12.9209 44.2155 12.6942 44.1021 12.062H46.7575C46.7575 11.9486 46.7575 11.8745 46.7575 11.7611C46.7924 10.6056 46.1165 9.85566 45.1093 9.85566ZM45.1093 10.5315C45.5977 10.5315 45.9334 10.8324 46.0075 11.3905H44.137C44.2111 10.9065 44.5468 10.5315 45.1093 10.5315ZM64.6085 11.7306V8.5127H63.8236V10.3833C63.562 10.0475 63.187 9.86002 62.6987 9.86002C61.6871 9.86002 60.9022 10.6449 60.9022 11.7306C60.9022 12.8163 61.6871 13.6011 62.6987 13.6011C63.2219 13.6011 63.5969 13.4136 63.8236 13.0779V13.527H64.6085V11.7306ZM61.7263 11.7306C61.7263 11.094 62.1362 10.5707 62.812 10.5707C63.4486 10.5707 63.8977 11.0591 63.8977 11.7306C63.8977 12.3672 63.4486 12.8904 62.812 12.8904C62.1362 12.8512 61.7263 12.3628 61.7263 11.7306ZM35.4513 11.7306V9.93415H34.6665V10.3833C34.4049 10.0475 34.0299 9.86002 33.5415 9.86002C32.5299 9.86002 31.7451 10.6449 31.7451 11.7306C31.7451 12.8163 32.5299 13.6011 33.5415 13.6011C34.0648 13.6011 34.4397 13.4136 34.6665 13.0779V13.527H35.4513V11.7306ZM32.5343 11.7306C32.5343 11.094 32.9442 10.5707 33.62 10.5707C34.2566 10.5707 34.7057 11.0591 34.7057 11.7306C34.7057 12.3672 34.2566 12.8904 33.62 12.8904C32.9442 12.8512 32.5343 12.3628 32.5343 11.7306Z" fill="black"/>
</svg>
