<svg xmlns="http://www.w3.org/2000/svg" width="40" height="41" fill="none" xmlns:v="https://vecta.io/nano"><g clip-path="url(#C)"><mask id="A" maskUnits="userSpaceOnUse" x="0" y="0" width="40" height="41"><path d="M40 .38H0v40h40v-40z" fill="#fff"/></mask><g mask="url(#A)"><path d="M8.228 24.234h6.063l-1.959 10.568 15.763-14.665c1.865-1.49.653-3.771-.513-3.771h-5.876c1.508-1.428 4.759-5.288 5.876-6.89s-.457-4.004-1.819-4.004c-2.565.047-8.451.112-11.473 0s-4.213 2.623-4.43 4.004c-.886 3.011-2.761 9.6-3.171 11.872-.292 1.616.812 2.887 1.539 2.887z" fill="url(#B)"/></g></g><defs><linearGradient id="B" x1="17.85" y1="5.469" x2="17.85" y2="34.802" gradientUnits="userSpaceOnUse"><stop stop-color="#490e06"/><stop offset=".515" stop-color="#873d13"/><stop offset="1" stop-color="#a88300"/></linearGradient><clipPath id="C"><path fill="#fff" transform="translate(0 .38)" d="M0 0h40v40H0z"/></clipPath></defs></svg>