<svg width="28" height="28" viewBox="0 0 28 28" fill="none" xmlns="http://www.w3.org/2000/svg">
<mask id="mask0_47246_19731" style="mask-type:luminance" maskUnits="userSpaceOnUse" x="0" y="0" width="28" height="28">
<path d="M28 0H0V28H28V0Z" fill="white"/>
</mask>
<g mask="url(#mask0_47246_19731)">
<path d="M14 28C21.732 28 28 21.732 28 14C28 6.26801 21.732 0 14 0C6.26801 0 0 6.26801 0 14C0 21.732 6.26801 28 14 28Z" fill="url(#paint0_linear_47246_19731)"/>
<path d="M14 26.6875C21.0071 26.6875 26.6875 21.0071 26.6875 14C26.6875 6.99289 21.0071 1.3125 14 1.3125C6.99289 1.3125 1.3125 6.99289 1.3125 14C1.3125 21.0071 6.99289 26.6875 14 26.6875Z" fill="url(#paint1_linear_47246_19731)"/>
<path fill-rule="evenodd" clip-rule="evenodd" d="M10.125 7.01925C10.2716 7.01764 10.4385 7.0163 10.6224 7.01512C10.7709 7.01416 10.8916 7.13432 10.8916 7.28282V17.5116C10.8916 17.6463 10.7916 17.7597 10.6585 17.7798C10.0037 17.879 9.1963 18.0598 8.38592 18.3438C8.2079 18.4062 8.01805 18.2763 8.01805 18.0878V8.80382C8.02501 8.21652 8.45615 7.0373 10.125 7.01925ZM8.18316 19.0437C8.08276 19.0836 8.01805 19.1814 8.01805 19.2893V19.9631C7.87292 21.445 8.62892 21.9962 9.35583 21.9962H19.2447C19.2578 21.9962 19.2709 21.9973 19.2839 21.9985C19.4947 22.0174 19.902 21.8683 19.9898 21.1152C20.0789 20.3517 19.5626 20.1072 19.2794 20.0774C19.2708 20.0765 19.2644 20.0695 19.2644 20.0608C19.2644 20.0517 19.257 20.0444 19.2479 20.0444H11.4529C11.305 20.0444 11.1851 19.9244 11.1851 19.7765V19.7275C11.1851 19.5796 11.305 19.4596 11.4529 19.4596H18.9965C19.1445 19.4596 19.2644 19.3397 19.2644 19.1918V18.8412C19.2641 18.8388 19.2638 18.8364 19.2634 18.8339C19.2368 18.6194 19.0654 18.3433 18.8492 18.3433H10.8945C10.8929 18.3433 10.8916 18.342 10.8916 18.3404C10.8916 18.3386 10.8901 18.3372 10.8883 18.3374C10.1402 18.4403 9.14176 18.6632 8.18316 19.0437ZM19.9898 9.14266V17.4907C19.9898 17.6386 19.8699 17.7586 19.722 17.7586H11.7464C11.5984 17.7586 11.4785 17.6386 11.4785 17.4907V7.27843C11.4785 7.13078 11.5974 7.011 11.745 7.01068C13.7435 7.00618 16.5424 7.01346 18.0166 7.01914C18.0313 7.01919 18.0451 7.01807 18.0596 7.01593C18.7169 6.92003 19.9898 7.21216 19.9898 9.14266Z" fill="url(#paint2_linear_47246_19731)"/>
</g>
<defs>
<linearGradient id="paint0_linear_47246_19731" x1="14" y1="0" x2="14" y2="28" gradientUnits="userSpaceOnUse">
<stop stop-color="#490E06"/>
<stop offset="0.515" stop-color="#873D13"/>
<stop offset="1" stop-color="#A88300"/>
</linearGradient>
<linearGradient id="paint1_linear_47246_19731" x1="15.0287" y1="26.6875" x2="15.0287" y2="1.3125" gradientUnits="userSpaceOnUse">
<stop stop-color="#FFF973"/>
<stop offset="1" stop-color="#FAC000"/>
</linearGradient>
<linearGradient id="paint2_linear_47246_19731" x1="14" y1="7" x2="14" y2="22" gradientUnits="userSpaceOnUse">
<stop stop-color="#490E06"/>
<stop offset="0.515" stop-color="#873D13"/>
<stop offset="1" stop-color="#A88300"/>
</linearGradient>
</defs>
</svg>
