<svg width="28" height="28" viewBox="0 0 28 28" fill="none" xmlns="http://www.w3.org/2000/svg">
<g clip-path="url(#clip0_45590_182874)">
<mask id="mask0_45590_182874" style="mask-type:luminance" maskUnits="userSpaceOnUse" x="0" y="0" width="28" height="28">
<path d="M28 0H0V28H28V0Z" fill="white"/>
</mask>
<g mask="url(#mask0_45590_182874)">
<path d="M14 28C21.732 28 28 21.732 28 14C28 6.26801 21.732 0 14 0C6.26801 0 0 6.26801 0 14C0 21.732 6.26801 28 14 28Z" fill="url(#paint0_linear_45590_182874)"/>
<path d="M14 26.6875C21.0071 26.6875 26.6875 21.0071 26.6875 14C26.6875 6.99289 21.0071 1.3125 14 1.3125C6.99289 1.3125 1.3125 6.99289 1.3125 14C1.3125 21.0071 6.99289 26.6875 14 26.6875Z" fill="url(#paint1_linear_45590_182874)"/>
<path fill-rule="evenodd" clip-rule="evenodd" d="M17.9091 9.42777H10.0901C10.0774 9.10981 9.94591 8.8075 9.72048 8.58164C9.4832 8.34391 9.16141 8.21031 8.82585 8.21031C8.49029 8.21031 8.16851 8.34391 7.93122 8.58164C7.70388 8.80941 7.57203 9.11495 7.56137 9.43586C6.87662 9.51034 6.34375 10.0904 6.34375 10.795V17.8151H11.1268V12.0938H11.6185V17.8151H16.3334V11.5548H16.8252V16.1429H21.6562V10.795C21.6562 10.0906 21.1237 9.51073 20.4393 9.43591C20.4379 9.27333 20.4052 9.11255 20.343 8.96227C20.2795 8.80848 20.1863 8.6687 20.0688 8.55096C19.9513 8.43327 19.8119 8.33987 19.6584 8.27616C19.5048 8.21244 19.3403 8.17969 19.1741 8.17969C19.008 8.17969 18.8435 8.21244 18.69 8.27616C18.5365 8.33987 18.397 8.43327 18.2796 8.55096C18.162 8.6687 18.0689 8.80848 18.0053 8.96227C17.9442 9.11003 17.9116 9.26797 17.9091 9.42777ZM21.6562 17.8151H16.8252V16.6357H21.6562V17.8151ZM6.34375 18.4609V18.3079H21.6562V18.4609C21.6562 19.216 21.0441 19.8281 20.2891 19.8281H7.71094C6.95587 19.8281 6.34375 19.216 6.34375 18.4609ZM9.37683 13.853L8.25355 16.0816H9.0527L10.1816 13.8362V13.2147H8.05798V13.8362H9.37683V13.853ZM13.4216 16.0816L14.5449 13.853V13.8362H13.2261V13.2147H15.3496V13.8362L14.2208 16.0816H13.4216ZM19.4715 12.3993L18.3482 14.6279H19.1474L20.2762 12.3825V11.761H18.1526V12.3825H19.4715V12.3993Z" fill="url(#paint2_linear_45590_182874)"/>
</g>
</g>
<defs>
<linearGradient id="paint0_linear_45590_182874" x1="14" y1="0" x2="14" y2="28" gradientUnits="userSpaceOnUse">
<stop stop-color="#490E06"/>
<stop offset="0.515" stop-color="#873D13"/>
<stop offset="1" stop-color="#A88300"/>
</linearGradient>
<linearGradient id="paint1_linear_45590_182874" x1="15.0287" y1="26.6875" x2="15.0287" y2="1.3125" gradientUnits="userSpaceOnUse">
<stop stop-color="#FFF973"/>
<stop offset="1" stop-color="#FAC000"/>
</linearGradient>
<linearGradient id="paint2_linear_45590_182874" x1="14" y1="8.17969" x2="14" y2="19.8281" gradientUnits="userSpaceOnUse">
<stop stop-color="#490E06"/>
<stop offset="0.515" stop-color="#873D13"/>
<stop offset="1" stop-color="#A88300"/>
</linearGradient>
<clipPath id="clip0_45590_182874">
<rect width="28" height="28" fill="white"/>
</clipPath>
</defs>
</svg>
