<svg width="28" height="28" viewBox="0 0 28 28" fill="none" xmlns="http://www.w3.org/2000/svg">
<g clip-path="url(#clip0_45590_182862)">
<mask id="mask0_45590_182862" style="mask-type:luminance" maskUnits="userSpaceOnUse" x="0" y="0" width="28" height="28">
<path d="M28 0H0V28H28V0Z" fill="white"/>
</mask>
<g mask="url(#mask0_45590_182862)">
<path d="M14 28C21.732 28 28 21.732 28 14C28 6.26801 21.732 0 14 0C6.26801 0 0 6.26801 0 14C0 21.732 6.26801 28 14 28Z" fill="url(#paint0_linear_45590_182862)"/>
<path d="M14 26.6875C21.0071 26.6875 26.6875 21.0071 26.6875 14C26.6875 6.99289 21.0071 1.3125 14 1.3125C6.99289 1.3125 1.3125 6.99289 1.3125 14C1.3125 21.0071 6.99289 26.6875 14 26.6875Z" fill="url(#paint1_linear_45590_182862)"/>
<path d="M13.7633 6.74925C13.8687 6.56796 14.1305 6.56796 14.236 6.74925L16.6716 10.9368C16.7103 11.0032 16.775 11.0503 16.85 11.0666L21.5804 12.0923C21.7851 12.1367 21.8659 12.3853 21.7265 12.5416L18.5012 16.1562C18.4502 16.2135 18.4255 16.2895 18.4332 16.3658L18.9208 21.1881C18.9419 21.3966 18.7301 21.5504 18.5384 21.4658L14.11 19.5116C14.0397 19.4806 13.9595 19.4806 13.8892 19.5116L9.46088 21.4658C9.26915 21.5504 9.05734 21.3966 9.07845 21.1881L9.56605 16.3658C9.57376 16.2895 9.54904 16.2135 9.49802 16.1562L6.27277 12.5416C6.13331 12.3853 6.21414 12.1367 6.41884 12.0923L11.1492 11.0666C11.2242 11.0503 11.289 11.0032 11.3276 10.9368L13.7633 6.74925Z" fill="url(#paint2_linear_45590_182862)"/>
</g>
</g>
<defs>
<linearGradient id="paint0_linear_45590_182862" x1="14" y1="0" x2="14" y2="28" gradientUnits="userSpaceOnUse">
<stop stop-color="#490E06"/>
<stop offset="0.515" stop-color="#873D13"/>
<stop offset="1" stop-color="#A88300"/>
</linearGradient>
<linearGradient id="paint1_linear_45590_182862" x1="15.0287" y1="26.6875" x2="15.0287" y2="1.3125" gradientUnits="userSpaceOnUse">
<stop stop-color="#FFF973"/>
<stop offset="1" stop-color="#FAC000"/>
</linearGradient>
<linearGradient id="paint2_linear_45590_182862" x1="13.9996" y1="6.61328" x2="13.9996" y2="21.4894" gradientUnits="userSpaceOnUse">
<stop stop-color="#490E06"/>
<stop offset="0.515" stop-color="#873D13"/>
<stop offset="1" stop-color="#A88300"/>
</linearGradient>
<clipPath id="clip0_45590_182862">
<rect width="28" height="28" fill="white"/>
</clipPath>
</defs>
</svg>
