<svg width="28" height="28" viewBox="0 0 28 28" fill="none" xmlns="http://www.w3.org/2000/svg">
<g clip-path="url(#clip0_45590_182863)">
<mask id="mask0_45590_182863" style="mask-type:luminance" maskUnits="userSpaceOnUse" x="0" y="0" width="28" height="28">
<path d="M28 0H0V28H28V0Z" fill="white"/>
</mask>
<g mask="url(#mask0_45590_182863)">
<path d="M14 28C21.732 28 28 21.732 28 14C28 6.26801 21.732 0 14 0C6.26801 0 0 6.26801 0 14C0 21.732 6.26801 28 14 28Z" fill="url(#paint0_linear_45590_182863)"/>
<path d="M14 26.6875C21.0071 26.6875 26.6875 21.0071 26.6875 14C26.6875 6.99289 21.0071 1.3125 14 1.3125C6.99289 1.3125 1.3125 6.99289 1.3125 14C1.3125 21.0071 6.99289 26.6875 14 26.6875Z" fill="url(#paint1_linear_45590_182863)"/>
<path d="M8.97697 17.1239H12.1418L11.1193 22.6406C13.4564 20.4129 18.3741 15.7629 19.3479 14.9852C20.3217 14.2075 19.6887 13.0167 19.0801 13.0167H16.0126C16.7998 12.2714 18.4968 10.256 19.0801 9.41991C19.6634 8.58379 18.8417 7.32986 18.1307 7.32986C16.7917 7.35414 13.7194 7.38816 12.1418 7.32986C10.5643 7.27151 9.94265 8.69891 9.82906 9.41991C9.36651 10.9915 8.38793 14.4311 8.17356 15.6171C8.02104 16.4609 8.59733 17.1239 8.97697 17.1239Z" fill="url(#paint2_linear_45590_182863)"/>
</g>
</g>
<defs>
<linearGradient id="paint0_linear_45590_182863" x1="14" y1="0" x2="14" y2="28" gradientUnits="userSpaceOnUse">
<stop stop-color="#490E06"/>
<stop offset="0.515" stop-color="#873D13"/>
<stop offset="1" stop-color="#A88300"/>
</linearGradient>
<linearGradient id="paint1_linear_45590_182863" x1="15.0287" y1="26.6875" x2="15.0287" y2="1.3125" gradientUnits="userSpaceOnUse">
<stop stop-color="#FFF973"/>
<stop offset="1" stop-color="#FAC000"/>
</linearGradient>
<linearGradient id="paint2_linear_45590_182863" x1="14" y1="7.32812" x2="14" y2="22.6406" gradientUnits="userSpaceOnUse">
<stop stop-color="#490E06"/>
<stop offset="0.515" stop-color="#873D13"/>
<stop offset="1" stop-color="#A88300"/>
</linearGradient>
<clipPath id="clip0_45590_182863">
<rect width="28" height="28" fill="white"/>
</clipPath>
</defs>
</svg>
