<svg width="28" height="28" viewBox="0 0 28 28" fill="none" xmlns="http://www.w3.org/2000/svg">
<g clip-path="url(#clip0_45590_182864)">
<mask id="mask0_45590_182864" style="mask-type:luminance" maskUnits="userSpaceOnUse" x="0" y="0" width="28" height="28">
<path d="M28 0H0V28H28V0Z" fill="white"/>
</mask>
<g mask="url(#mask0_45590_182864)">
<path d="M14 28C21.732 28 28 21.732 28 14C28 6.26801 21.732 0 14 0C6.26801 0 0 6.26801 0 14C0 21.732 6.26801 28 14 28Z" fill="url(#paint0_linear_45590_182864)"/>
<path d="M14 26.6875C21.0071 26.6875 26.6875 21.0071 26.6875 14C26.6875 6.99289 21.0071 1.3125 14 1.3125C6.99289 1.3125 1.3125 6.99289 1.3125 14C1.3125 21.0071 6.99289 26.6875 14 26.6875Z" fill="url(#paint1_linear_45590_182864)"/>
<path fill-rule="evenodd" clip-rule="evenodd" d="M8.64014 13.5662C8.11346 14.5488 7.51136 16.9957 8.64014 19.026C10.1239 21.6951 12.6541 22 13.8503 22C16.3625 22 20.316 20.6464 19.9799 16.013C20.0105 14.6507 19.704 11.8326 18.2329 11.4577C17.6271 11.5862 17.2809 11.9606 16.7748 12.5079C16.5631 12.7368 16.3236 12.9958 16.0254 13.2798C16.0241 12.9957 16.0305 12.6783 16.0374 12.3413C16.0863 9.92975 16.1557 6.51043 13.5735 7.05855C13.2363 7.13017 13.1148 7.33751 12.997 7.80694C12.8946 9.28996 12.0237 10.0241 11.0087 10.8798C10.2065 11.5561 9.31424 12.3083 8.64014 13.5662ZM13.8512 16.1559C13.724 16.5564 13.5219 17.1927 12.5844 17.7841C12.4458 18.059 12.2845 18.7002 12.5844 19.2498C12.9786 19.9724 13.6507 20.0673 13.9684 20.0673C14.6358 20.0673 15.6861 19.7008 15.5968 18.4465C15.6049 18.0777 15.5235 17.3148 15.1327 17.2133C14.9718 17.2481 14.8798 17.3495 14.7453 17.4977C14.6891 17.5596 14.6254 17.6297 14.5462 17.7066C14.5459 17.6297 14.5476 17.5438 14.5494 17.4526C14.5624 16.7997 14.5809 15.874 13.8949 16.0224C13.8807 16.0632 13.8665 16.1079 13.8512 16.1559Z" fill="url(#paint2_linear_45590_182864)"/>
</g>
</g>
<defs>
<linearGradient id="paint0_linear_45590_182864" x1="14" y1="0" x2="14" y2="28" gradientUnits="userSpaceOnUse">
<stop stop-color="#490E06"/>
<stop offset="0.515" stop-color="#873D13"/>
<stop offset="1" stop-color="#A88300"/>
</linearGradient>
<linearGradient id="paint1_linear_45590_182864" x1="15.0287" y1="26.6875" x2="15.0287" y2="1.3125" gradientUnits="userSpaceOnUse">
<stop stop-color="#FFF973"/>
<stop offset="1" stop-color="#FAC000"/>
</linearGradient>
<linearGradient id="paint2_linear_45590_182864" x1="14" y1="7" x2="14" y2="22" gradientUnits="userSpaceOnUse">
<stop stop-color="#490E06"/>
<stop offset="0.515" stop-color="#873D13"/>
<stop offset="1" stop-color="#A88300"/>
</linearGradient>
<clipPath id="clip0_45590_182864">
<rect width="28" height="28" fill="white"/>
</clipPath>
</defs>
</svg>
