<svg width="28" height="28" viewBox="0 0 28 28" fill="none" xmlns="http://www.w3.org/2000/svg">
<g clip-path="url(#clip0_45590_182865)">
<mask id="mask0_45590_182865" style="mask-type:luminance" maskUnits="userSpaceOnUse" x="0" y="0" width="28" height="28">
<path d="M28 0H0V28H28V0Z" fill="white"/>
</mask>
<g mask="url(#mask0_45590_182865)">
<path d="M14 28C21.732 28 28 21.732 28 14C28 6.26801 21.732 0 14 0C6.26801 0 0 6.26801 0 14C0 21.732 6.26801 28 14 28Z" fill="url(#paint0_linear_45590_182865)"/>
<path d="M14 26.6875C21.0071 26.6875 26.6875 21.0071 26.6875 14C26.6875 6.99289 21.0071 1.3125 14 1.3125C6.99289 1.3125 1.3125 6.99289 1.3125 14C1.3125 21.0071 6.99289 26.6875 14 26.6875Z" fill="url(#paint1_linear_45590_182865)"/>
<path fill-rule="evenodd" clip-rule="evenodd" d="M13.2296 7.05469H14.3263L16.3403 12.4364H11.2155L13.2296 7.05469ZM10.3113 12.4364L12.3254 7.05469H9.863C9.5673 7.05469 9.29452 7.21377 9.14895 7.47113L6.3753 12.3747C6.36388 12.3949 6.35332 12.4155 6.34375 12.4364H10.3113ZM6.44142 13.2817H10.4556L12.6359 20.7868C12.6069 20.7605 12.5797 20.7319 12.5545 20.7014L6.45624 13.3002C6.45121 13.2941 6.44629 13.2879 6.44142 13.2817ZM11.3376 13.2817H16.2182L13.976 21H13.5798L11.3376 13.2817ZM17.1002 13.2817L14.9107 20.8185C14.9471 20.7892 14.9812 20.7566 15.0125 20.7209L21.5216 13.3078C21.5291 13.2992 21.5364 13.2905 21.5435 13.2817H17.1002ZM21.6561 12.4364C21.644 12.4089 21.6303 12.382 21.6151 12.3555L18.7828 7.46397C18.6361 7.21066 18.3656 7.05469 18.0729 7.05469H15.2305L17.2445 12.4364H21.6561Z" fill="url(#paint2_linear_45590_182865)"/>
</g>
</g>
<defs>
<linearGradient id="paint0_linear_45590_182865" x1="14" y1="0" x2="14" y2="28" gradientUnits="userSpaceOnUse">
<stop stop-color="#490E06"/>
<stop offset="0.515" stop-color="#873D13"/>
<stop offset="1" stop-color="#A88300"/>
</linearGradient>
<linearGradient id="paint1_linear_45590_182865" x1="15.0287" y1="26.6875" x2="15.0287" y2="1.3125" gradientUnits="userSpaceOnUse">
<stop stop-color="#FFF973"/>
<stop offset="1" stop-color="#FAC000"/>
</linearGradient>
<linearGradient id="paint2_linear_45590_182865" x1="13.9999" y1="7.05469" x2="13.9999" y2="21" gradientUnits="userSpaceOnUse">
<stop stop-color="#490E06"/>
<stop offset="0.515" stop-color="#873D13"/>
<stop offset="1" stop-color="#A88300"/>
</linearGradient>
<clipPath id="clip0_45590_182865">
<rect width="28" height="28" fill="white"/>
</clipPath>
</defs>
</svg>
