<svg width="28" height="28" viewBox="0 0 28 28" fill="none" xmlns="http://www.w3.org/2000/svg">
<g clip-path="url(#clip0_45590_182869)">
<mask id="mask0_45590_182869" style="mask-type:luminance" maskUnits="userSpaceOnUse" x="0" y="0" width="28" height="28">
<path d="M28 0H0V28H28V0Z" fill="white"/>
</mask>
<g mask="url(#mask0_45590_182869)">
<path d="M14 28C21.732 28 28 21.732 28 14C28 6.26801 21.732 0 14 0C6.26801 0 0 6.26801 0 14C0 21.732 6.26801 28 14 28Z" fill="url(#paint0_linear_45590_182869)"/>
<path d="M14 26.6875C21.0071 26.6875 26.6875 21.0071 26.6875 14C26.6875 6.99289 21.0071 1.3125 14 1.3125C6.99289 1.3125 1.3125 6.99289 1.3125 14C1.3125 21.0071 6.99289 26.6875 14 26.6875Z" fill="url(#paint1_linear_45590_182869)"/>
<path fill-rule="evenodd" clip-rule="evenodd" d="M14.2229 21.6562C18.2738 21.5396 21.5364 18.2763 21.653 14.2245H19.6108V13.7256H21.6514C21.5875 11.9092 20.8912 10.2537 19.776 8.97263L18.3403 10.4086L18.3392 10.4076C19.134 11.3794 19.6108 12.6215 19.6108 13.9751C19.6108 15.328 19.1344 16.5696 18.3402 17.5413L19.7863 18.9877L19.4336 19.3405L18.0072 17.9139C16.9835 18.9626 15.5545 19.6136 13.9734 19.6136C12.392 19.6136 10.9627 18.9623 9.93896 17.9134L8.51211 19.3405L8.43489 19.2633C9.77222 20.677 11.6424 21.5813 13.724 21.6547V19.6136H14.2229V21.6562ZM8.34143 14.2245C8.39617 15.482 8.8626 16.6325 9.6093 17.5447L9.6057 17.5411L8.17398 18.9731C7.07602 17.6879 6.39587 16.0349 6.34375 14.2245H8.34143ZM18.0072 10.0361C17.0376 9.04291 15.7044 8.40645 14.2229 8.34187V6.34375C16.3292 6.4044 18.2224 7.31577 19.571 8.74639L19.4339 8.60918L18.0072 10.0361ZM21.6562 14C21.6562 14.0085 21.6562 14.0171 21.6562 14.0255V13.9745C21.6562 13.9829 21.6562 13.9915 21.6562 14ZM6.34534 13.7256H8.34137C8.39661 12.4573 8.8707 11.2977 9.62877 10.3818L8.22041 8.97307C7.10544 10.2541 6.40927 11.9094 6.34534 13.7256ZM8.44074 8.73053L8.56209 8.60918L9.96395 10.0113C10.9314 9.0323 12.2548 8.40585 13.724 8.34187V6.34534C11.6454 6.41856 9.77769 7.3203 8.44074 8.73053ZM19.1119 13.9751C19.1119 16.8136 16.8113 19.1146 13.9734 19.1146C11.1355 19.1146 8.83488 16.8136 8.83488 13.9751C8.83488 11.1365 11.1355 8.83548 13.9734 8.83548C16.8113 8.83548 19.1119 11.1365 19.1119 13.9751ZM13.724 11.9791V13.7256H11.9776V14.2245H13.724V15.971H14.2229V14.2245H15.9687V13.7256H14.2229V11.9791H13.724Z" fill="url(#paint2_linear_45590_182869)"/>
</g>
</g>
<defs>
<linearGradient id="paint0_linear_45590_182869" x1="14" y1="0" x2="14" y2="28" gradientUnits="userSpaceOnUse">
<stop stop-color="#490E06"/>
<stop offset="0.515" stop-color="#873D13"/>
<stop offset="1" stop-color="#A88300"/>
</linearGradient>
<linearGradient id="paint1_linear_45590_182869" x1="15.0287" y1="26.6875" x2="15.0287" y2="1.3125" gradientUnits="userSpaceOnUse">
<stop stop-color="#FFF973"/>
<stop offset="1" stop-color="#FAC000"/>
</linearGradient>
<linearGradient id="paint2_linear_45590_182869" x1="14" y1="6.34375" x2="14" y2="21.6562" gradientUnits="userSpaceOnUse">
<stop stop-color="#490E06"/>
<stop offset="0.515" stop-color="#873D13"/>
<stop offset="1" stop-color="#A88300"/>
</linearGradient>
<clipPath id="clip0_45590_182869">
<rect width="28" height="28" fill="white"/>
</clipPath>
</defs>
</svg>
