<svg width="28" height="28" viewBox="0 0 28 28" fill="none" xmlns="http://www.w3.org/2000/svg">
<g clip-path="url(#clip0_45590_182868)">
<mask id="mask0_45590_182868" style="mask-type:luminance" maskUnits="userSpaceOnUse" x="0" y="0" width="28" height="28">
<path d="M28 0H0V28H28V0Z" fill="white"/>
</mask>
<g mask="url(#mask0_45590_182868)">
<path d="M14 28C21.732 28 28 21.732 28 14C28 6.26801 21.732 0 14 0C6.26801 0 0 6.26801 0 14C0 21.732 6.26801 28 14 28Z" fill="url(#paint0_linear_45590_182868)"/>
<path d="M14 26.6875C21.0071 26.6875 26.6875 21.0071 26.6875 14C26.6875 6.99289 21.0071 1.3125 14 1.3125C6.99289 1.3125 1.3125 6.99289 1.3125 14C1.3125 21.0071 6.99289 26.6875 14 26.6875Z" fill="url(#paint1_linear_45590_182868)"/>
<path fill-rule="evenodd" clip-rule="evenodd" d="M14.7814 7.38898C18.2796 7.76114 21 10.6027 21 14.053C21 16.5117 19.6184 18.6614 17.5584 19.8285C17.6939 19.9756 17.7877 20.1587 17.8223 20.3609H17.837V20.5288C17.837 20.5308 17.837 20.5328 17.837 20.5348C17.837 20.5367 17.837 20.5387 17.837 20.5408V22H10.1111V20.6341V20.3609H10.1479C10.2032 20.1601 10.3181 19.9824 10.4732 19.8463C8.39569 18.6833 7 16.5243 7 14.053C7 10.6234 9.688 7.79516 13.156 7.39595C13.0556 7.22173 13.186 7 13.402 7H14.5314C14.7452 7 14.8742 7.21659 14.7814 7.38898ZM15.0938 15.3498C15.2262 15.2427 15.3418 15.1169 15.4359 14.9767L18.0578 17.4708C18.8617 16.5956 19.3619 15.4582 19.4006 14.2095H15.7056C15.7091 14.166 15.711 14.1221 15.711 14.0778C15.711 13.9524 15.6965 13.8303 15.669 13.7128H19.3915C19.3088 12.4906 18.7833 11.3841 17.9673 10.539L15.334 13.0427C15.2259 12.9125 15.0978 12.7982 14.9542 12.704L17.5974 10.1909C16.7021 9.42496 15.5388 8.94057 14.2593 8.88266V12.4363C14.1664 12.4215 14.0711 12.4139 13.9739 12.4139C13.8948 12.4139 13.817 12.419 13.7408 12.4288V8.88266C12.4612 8.94057 11.298 9.42496 10.4027 10.1909L13.0248 12.684C12.8789 12.7754 12.7482 12.8872 12.6371 13.0152L10.0328 10.539C9.21682 11.3841 8.69131 12.4906 8.6086 13.7128H12.2788C12.2513 13.8303 12.2369 13.9524 12.2369 14.0778C12.2369 14.1221 12.2387 14.166 12.2422 14.2095H8.59953C8.63822 15.4578 9.13814 16.5949 9.94157 17.4701L12.5325 15.0066C12.6297 15.1449 12.7482 15.2684 12.8832 15.3729L10.3022 17.8269C11.2101 18.6438 12.4128 19.1632 13.7408 19.2233V15.7268C13.817 15.7366 13.8948 15.7417 13.9739 15.7417C14.0711 15.7417 14.1664 15.7341 14.2593 15.7194V19.2233C15.5886 19.1632 16.7923 18.6427 17.7005 17.8246L15.0938 15.3498ZM19.963 14.053C19.963 15.5103 19.3933 16.8401 18.4556 17.8492L18.4593 17.8527L18.3853 17.9235C17.2957 19.0557 15.7343 19.7649 14.0001 19.7649C10.7068 19.7649 8.03712 17.2076 8.03712 14.053C8.03712 10.8984 10.7068 8.34105 14.0001 8.34105C17.2933 8.34105 19.963 10.8984 19.963 14.053Z" fill="url(#paint2_linear_45590_182868)"/>
</g>
</g>
<defs>
<linearGradient id="paint0_linear_45590_182868" x1="14" y1="0" x2="14" y2="28" gradientUnits="userSpaceOnUse">
<stop stop-color="#490E06"/>
<stop offset="0.515" stop-color="#873D13"/>
<stop offset="1" stop-color="#A88300"/>
</linearGradient>
<linearGradient id="paint1_linear_45590_182868" x1="15.0287" y1="26.6875" x2="15.0287" y2="1.3125" gradientUnits="userSpaceOnUse">
<stop stop-color="#FFF973"/>
<stop offset="1" stop-color="#FAC000"/>
</linearGradient>
<linearGradient id="paint2_linear_45590_182868" x1="14" y1="7" x2="14" y2="22" gradientUnits="userSpaceOnUse">
<stop stop-color="#490E06"/>
<stop offset="0.515" stop-color="#873D13"/>
<stop offset="1" stop-color="#A88300"/>
</linearGradient>
<clipPath id="clip0_45590_182868">
<rect width="28" height="28" fill="white"/>
</clipPath>
</defs>
</svg>
