<svg width="28" height="28" viewBox="0 0 28 28" fill="none" xmlns="http://www.w3.org/2000/svg">
<g clip-path="url(#clip0_45590_182878)">
<mask id="mask0_45590_182878" style="mask-type:luminance" maskUnits="userSpaceOnUse" x="0" y="0" width="28" height="28">
<path d="M28 0H0V28H28V0Z" fill="white"/>
</mask>
<g mask="url(#mask0_45590_182878)">
<path d="M14 28C21.732 28 28 21.732 28 14C28 6.26801 21.732 0 14 0C6.26801 0 0 6.26801 0 14C0 21.732 6.26801 28 14 28Z" fill="url(#paint0_linear_45590_182878)"/>
<path d="M14 26.6875C21.0071 26.6875 26.6875 21.0071 26.6875 14C26.6875 6.99289 21.0071 1.3125 14 1.3125C6.99289 1.3125 1.3125 6.99289 1.3125 14C1.3125 21.0071 6.99289 26.6875 14 26.6875Z" fill="url(#paint1_linear_45590_182878)"/>
<path fill-rule="evenodd" clip-rule="evenodd" d="M7.00048 19.2713C6.99858 18.4564 7.0031 7.67365 7.00048 7C8.01365 7.00084 15.0768 7 15.0768 7V19.2713L11.585 19.2616L11.585 19.8714H15.8056L15.8056 9.36702H20V22H11.585L11.585 19.2616L7.00048 19.2713ZM11.1009 15.138L12.6802 13.1744L11.1009 10.8876V15.138ZM11.1009 10.8876V15.138L11.0388 15.2153L9.34538 13.1744L11.0388 10.7976L11.1009 10.8876ZM14.5112 10.4175L13.2793 7.36361L12.0474 10.4175L12.5312 10.6094L12.9607 9.54468H13.5979L14.0275 10.6094L14.5112 10.4175ZM13.4095 9.06673H13.149L13.2793 8.7548L13.4095 9.06673ZM9.03271 14.8297L10.2646 17.8836L9.78084 18.0755L9.35131 17.0108H8.7141L8.28457 18.0755L7.80081 17.8836L9.03271 14.8297ZM8.90236 16.507H9.16289L9.03271 16.2209L8.90236 16.507ZM18.0722 10.1937V12.6997H16.9258V13.2422C17.499 13.2766 18.6453 13.3249 18.6453 13.2422V9.98708H18.0722V10.1937Z" fill="url(#paint2_linear_45590_182878)"/>
</g>
</g>
<defs>
<linearGradient id="paint0_linear_45590_182878" x1="14" y1="0" x2="14" y2="28" gradientUnits="userSpaceOnUse">
<stop stop-color="#490E06"/>
<stop offset="0.515" stop-color="#873D13"/>
<stop offset="1" stop-color="#A88300"/>
</linearGradient>
<linearGradient id="paint1_linear_45590_182878" x1="15.0287" y1="26.6875" x2="15.0287" y2="1.3125" gradientUnits="userSpaceOnUse">
<stop stop-color="#FFF973"/>
<stop offset="1" stop-color="#FAC000"/>
</linearGradient>
<linearGradient id="paint2_linear_45590_182878" x1="13.5" y1="7" x2="13.5" y2="22" gradientUnits="userSpaceOnUse">
<stop stop-color="#490E06"/>
<stop offset="0.515" stop-color="#873D13"/>
<stop offset="1" stop-color="#A88300"/>
</linearGradient>
<clipPath id="clip0_45590_182878">
<rect width="28" height="28" fill="white"/>
</clipPath>
</defs>
</svg>
