<svg width="28" height="28" viewBox="0 0 28 28" fill="none" xmlns="http://www.w3.org/2000/svg">
<g clip-path="url(#clip0_45608_191143)">
<mask id="mask0_45608_191143" style="mask-type:luminance" maskUnits="userSpaceOnUse" x="0" y="0" width="28" height="28">
<path d="M28 0H0V28H28V0Z" fill="white"/>
</mask>
<g mask="url(#mask0_45608_191143)">
<path d="M14 28C21.732 28 28 21.732 28 14C28 6.26801 21.732 0 14 0C6.26801 0 0 6.26801 0 14C0 21.732 6.26801 28 14 28Z" fill="url(#paint0_linear_45608_191143)"/>
<path d="M14 26.6875C21.0071 26.6875 26.6875 21.0071 26.6875 14C26.6875 6.99289 21.0071 1.3125 14 1.3125C6.99289 1.3125 1.3125 6.99289 1.3125 14C1.3125 21.0071 6.99289 26.6875 14 26.6875Z" fill="url(#paint1_linear_45608_191143)"/>
</g>
<path d="M19.4688 20.9997C15.8232 20.9997 12.1776 20.9997 8.53203 20.9997C8.50697 20.991 8.48253 20.9786 8.45674 20.9741C7.61849 20.8279 7.00254 20.1089 7.00196 19.2577C6.99958 15.7496 6.99898 12.2416 7.00236 8.73348C7.00327 7.78106 7.78226 7.00153 8.73558 7.00056C12.2478 6.99696 15.76 6.99747 19.2723 7.00057C20.0512 7.00125 20.7415 7.54495 20.9406 8.29487C20.9614 8.37308 20.9802 8.45179 21 8.53028C21 12.1763 21 15.8223 21 19.4684C20.9913 19.4934 20.9796 19.5178 20.9743 19.5436C20.83 20.249 20.4136 20.7104 19.73 20.9314C19.6445 20.959 19.556 20.9771 19.4688 20.9997ZM11.3732 17.9347C12.884 17.9347 14.3762 17.9347 15.8745 17.9347C15.8745 17.8946 15.8756 17.8637 15.8744 17.8328C15.8225 16.5406 15.935 15.2653 16.3041 14.0222C16.6301 12.9242 17.1375 11.9344 18.0767 11.2206C18.1045 11.1994 18.1298 11.1551 18.1305 11.1211C18.1353 10.8986 18.133 10.6759 18.133 10.4565C18.1178 10.4523 18.1127 10.449 18.1092 10.4502C18.058 10.4673 18.0072 10.4853 17.9561 10.5027C17.2145 10.7545 16.4524 10.8157 15.6779 10.7345C15.3694 10.7022 15.0693 10.6316 14.7985 10.4631C14.6803 10.3895 14.5518 10.322 14.4188 10.2844C13.7779 10.1034 13.1257 10.0825 12.4701 10.1863C12.0095 10.2593 11.5793 10.4079 11.2201 10.723C11.1659 10.7706 11.0889 10.7922 10.9901 10.8422C10.9901 10.5501 10.9901 10.3064 10.9901 10.066C10.6079 10.066 10.2417 10.066 9.87763 10.066C9.87763 11.3185 9.87763 12.5598 9.87763 13.8013C10.2545 13.8013 10.6214 13.8013 10.9849 13.8013C10.9973 13.7296 11.0063 13.6665 11.0193 13.6042C11.1104 13.1652 11.4237 12.8992 11.8699 12.8751C12.1852 12.858 12.4831 12.9334 12.7806 13.0249C12.9316 13.0714 13.0883 13.1142 13.2447 13.1246C13.8067 13.1621 14.3357 13.0146 14.8517 12.8088C14.8908 12.7932 14.9301 12.7781 14.9693 12.7628C14.9526 12.8077 14.9248 12.8302 14.8982 12.8539C14.3547 13.3386 13.7895 13.8014 13.2734 14.3138C12.588 14.9943 12.0092 15.7608 11.6404 16.6664C11.4763 17.0691 11.3689 17.4847 11.3732 17.9347Z" fill="url(#paint2_linear_45608_191143)"/>
</g>
<defs>
<linearGradient id="paint0_linear_45608_191143" x1="14" y1="0" x2="14" y2="28" gradientUnits="userSpaceOnUse">
<stop stop-color="#490E06"/>
<stop offset="0.515" stop-color="#873D13"/>
<stop offset="1" stop-color="#A88300"/>
</linearGradient>
<linearGradient id="paint1_linear_45608_191143" x1="15.0287" y1="26.6875" x2="15.0287" y2="1.3125" gradientUnits="userSpaceOnUse">
<stop stop-color="#FFF973"/>
<stop offset="1" stop-color="#FAC000"/>
</linearGradient>
<linearGradient id="paint2_linear_45608_191143" x1="14" y1="6.99805" x2="14" y2="20.9997" gradientUnits="userSpaceOnUse">
<stop stop-color="#490E06"/>
<stop offset="0.515" stop-color="#873D13"/>
<stop offset="1" stop-color="#A88300"/>
</linearGradient>
<clipPath id="clip0_45608_191143">
<rect width="28" height="28" fill="white"/>
</clipPath>
</defs>
</svg>
