<svg xmlns="http://www.w3.org/2000/svg" width="40" height="41" fill="none" xmlns:v="https://vecta.io/nano"><g clip-path="url(#C)"><mask id="A" maskUnits="userSpaceOnUse" x="0" y="0" width="40" height="41"><path d="M40 .38H0v40h40v-40z" fill="#fff"/></mask><g mask="url(#A)"><path d="M18.769 4.716a.54.54 0 0 1 .932 0l4.803 8.257a.54.54 0 0 0 .352.256l9.328 2.023a.54.54 0 0 1 .288.886l-6.36 7.127a.54.54 0 0 0-.134.413l.962 9.509a.54.54 0 0 1-.754.548l-8.732-3.853a.54.54 0 0 0-.435 0l-8.732 3.853a.54.54 0 0 1-.754-.548l.961-9.509a.54.54 0 0 0-.134-.413l-6.36-7.127a.54.54 0 0 1 .288-.886l9.327-2.023a.54.54 0 0 0 .352-.256l4.803-8.257z" fill="url(#B)"/></g></g><defs><linearGradient id="B" x1="19.236" y1="4.448" x2="19.236" y2="33.782" gradientUnits="userSpaceOnUse"><stop stop-color="#490e06"/><stop offset=".515" stop-color="#873d13"/><stop offset="1" stop-color="#a88300"/></linearGradient><clipPath id="C"><path fill="#fff" transform="translate(0 .38)" d="M0 0h40v40H0z"/></clipPath></defs></svg>