<svg width="69" height="24" viewBox="0 0 69 24" fill="none" xmlns="http://www.w3.org/2000/svg">
<path d="M53.5697 16.811C52.6174 16.811 51.6651 16.811 50.6986 16.811C50.5935 16.3569 50.4808 15.9126 50.3919 15.4645C50.355 15.2786 50.2889 15.2065 50.0582 15.2091C48.9069 15.2225 47.7553 15.2192 46.604 15.211C46.4297 15.2097 46.3604 15.2615 46.3074 15.4043C46.1488 15.8313 45.9754 16.2539 45.7979 16.6749C45.7738 16.732 45.6939 16.8105 45.6392 16.8109C44.6015 16.819 43.5636 16.8169 42.4959 16.8169C42.6905 16.3953 42.8747 15.9928 43.0618 15.5914C44.3999 12.7194 45.7385 9.84761 47.077 6.97578C47.3669 6.35378 47.8015 6.09332 48.5491 6.09328C49.3823 6.09323 50.2154 6.09327 51.0699 6.09327C51.1532 6.4434 51.237 6.78842 51.3173 7.13412C51.9757 9.97227 52.6327 12.8107 53.2927 15.6486C53.3772 16.0121 53.477 16.3727 53.5697 16.7347C53.5697 16.7601 53.5697 16.7856 53.5697 16.811ZM49.812 13.0024C49.506 11.6827 49.2041 10.3807 48.9023 9.07871C48.8899 9.07654 48.8776 9.07437 48.8653 9.07219C48.3393 10.3774 47.8133 11.6827 47.2814 13.0024C48.1404 13.0024 48.9629 13.0024 49.812 13.0024Z" fill="#1434CB"/>
<path d="M41.0619 5.9024C41.4408 5.9657 41.8225 6.01773 42.1977 6.09558C42.5401 6.16662 42.8753 6.26563 43.2391 6.35886C43.0557 7.13034 42.8767 7.88333 42.7016 8.62007C42.2216 8.49343 41.7627 8.34761 41.2911 8.25397C40.646 8.12589 39.9851 8.07707 39.3397 8.23884C39.0774 8.3046 38.8119 8.43088 38.6054 8.59006C38.2511 8.86309 38.2464 9.25615 38.5847 9.5428C38.818 9.74046 39.0946 9.90273 39.3709 10.0522C39.9991 10.3921 40.6587 10.6876 41.2692 11.0506C41.9882 11.4781 42.5126 12.0659 42.6227 12.8606C42.8174 14.2661 42.2396 15.3733 40.9272 16.1566C40.1018 16.6491 39.1679 16.8691 38.1947 16.9505C36.8359 17.0643 35.5039 16.9274 34.2056 16.5437C34.1186 16.518 34.0338 16.4858 33.9489 16.4546C33.9236 16.4453 33.9016 16.4288 33.8628 16.407C34.0462 15.6344 34.2299 14.8605 34.4187 14.0651C34.64 14.152 34.8478 14.2391 35.0601 14.3161C36.0744 14.6838 37.122 14.852 38.2077 14.669C38.4901 14.6214 38.7782 14.5092 39.0176 14.3648C39.5371 14.0515 39.587 13.4628 39.1139 13.0947C38.803 12.8529 38.4292 12.6742 38.0749 12.4801C37.5216 12.1769 36.9338 11.9184 36.4102 11.5791C35.7389 11.1441 35.2528 10.564 35.1607 9.79315C35.0227 8.63889 35.4988 7.70166 36.4838 6.97341C37.3407 6.33977 38.3581 6.05857 39.4421 5.94047C39.5023 5.9339 39.5609 5.91537 39.6203 5.9024C40.1008 5.9024 40.5814 5.9024 41.0619 5.9024Z" fill="#1434CB"/>
<path d="M29.8968 6.102C29.7355 6.45114 29.5828 6.78403 29.428 7.11614C27.9504 10.2872 26.4709 13.4575 24.9993 16.6309C24.9292 16.7821 24.8434 16.8218 24.673 16.8205C23.7403 16.8135 22.8075 16.8108 21.875 16.8223C21.6773 16.8248 21.6129 16.7624 21.5674 16.6029C20.7767 13.8311 19.9729 11.0624 19.1912 8.28864C19.0478 7.77976 18.7607 7.4322 18.2222 7.21891C17.3591 6.877 16.4632 6.63682 15.5493 6.4416C15.5089 6.43296 15.4687 6.42352 15.4307 6.41498C15.4352 6.09328 15.4352 6.09327 15.7753 6.09327C17.4075 6.09327 19.0397 6.09294 20.6719 6.09341C21.446 6.09364 22.0048 6.49818 22.1512 7.1875C22.5655 9.13889 22.9711 11.0918 23.3803 13.0441C23.3982 13.1294 23.4186 13.2144 23.4457 13.3346C23.488 13.263 23.5176 13.2228 23.5369 13.179C24.5506 10.8724 25.5647 8.56594 26.5732 6.25754C26.6283 6.13152 26.6961 6.08878 26.8474 6.08986C27.7941 6.09661 28.741 6.09313 29.6878 6.09359C29.749 6.09363 29.8102 6.09838 29.8968 6.102Z" fill="#1434CB"/>
<path d="M28.6608 16.8172C29.5134 13.2325 30.3601 9.67295 31.2089 6.10472C32.2413 6.10472 33.2616 6.10472 34.3015 6.10472C34.1727 6.64818 34.0468 7.18127 33.9201 7.71419C33.2195 10.6615 32.5163 13.6083 31.8234 16.5571C31.7752 16.762 31.6945 16.8271 31.4581 16.823C30.6106 16.8082 29.7626 16.8172 28.9148 16.8172C28.8388 16.8172 28.7627 16.8172 28.6608 16.8172Z" fill="#1434CB"/>
</svg>
